<svg width="30" height="30" viewBox="0 0 30 30" fill="none" xmlns="http://www.w3.org/2000/svg">
<rect width="30" height="30" rx="15" fill="#f97316" fill-opacity="0.4"/>
<g clip-path="url(#clip0_1071_866)">
<path d="M7.5 7.5V20.8333C7.5 21.2754 7.67559 21.6993 7.98816 22.0118C8.30072 22.3244 8.72464 22.5 9.16667 22.5H22.5M10.8333 14.3392C10.8334 14.2289 10.8771 14.1231 10.955 14.045L12.6217 12.3783C12.6604 12.3395 12.7064 12.3087 12.757 12.2877C12.8076 12.2667 12.8619 12.2559 12.9167 12.2559C12.9715 12.2559 13.0257 12.2667 13.0764 12.2877C13.127 12.3087 13.173 12.3395 13.2117 12.3783L15.955 15.1217C15.9937 15.1605 16.0397 15.1913 16.0903 15.2123C16.1409 15.2333 16.1952 15.2441 16.25 15.2441C16.3048 15.2441 16.3591 15.2333 16.4097 15.2123C16.4603 15.1913 16.5063 15.1605 16.545 15.1217L20.1217 11.545C20.1799 11.4866 20.2541 11.4468 20.335 11.4307C20.4158 11.4145 20.4996 11.4227 20.5758 11.4542C20.652 11.4857 20.7172 11.5391 20.763 11.6076C20.8088 11.6761 20.8333 11.7567 20.8333 11.8392V18.3333C20.8333 18.5543 20.7455 18.7663 20.5893 18.9226C20.433 19.0789 20.221 19.1667 20 19.1667H11.6667C11.4457 19.1667 11.2337 19.0789 11.0774 18.9226C10.9211 18.7663 10.8333 18.5543 10.8333 18.3333V14.3392Z" stroke="#CC840E" stroke-width="2" stroke-linecap="round" stroke-linejoin="round"/>
</g>
<defs>
<clipPath id="clip0_1071_866">
<rect width="17" height="17" fill="white" transform="translate(6.5 6.5)"/>
</clipPath>
</defs>
</svg>
