<svg width="30" height="30" viewBox="0 0 30 30" fill="none" xmlns="http://www.w3.org/2000/svg">
<rect width="30" height="30" rx="15" fill="#a855f7" fill-opacity="0.4"/>
<g clip-path="url(#clip0_1071_841)">
<path d="M20.5781 11.8881C20.5414 12.1296 20.6224 12.374 20.7948 12.5465L21.9706 13.7223C22.323 14.0747 22.5 14.5373 22.5 15C22.5 15.4627 22.3238 15.9246 21.9706 16.2777L20.7626 17.4858C20.6814 17.5669 20.5824 17.6278 20.4734 17.6638C20.3644 17.6997 20.2485 17.7096 20.135 17.6927C19.7825 17.6402 19.5336 17.3328 19.4091 16.9991C19.2999 16.7042 19.1183 16.4416 18.881 16.2353C18.6437 16.029 18.3584 15.8856 18.0512 15.8184C17.744 15.7513 17.4249 15.7624 17.1232 15.8508C16.8214 15.9392 16.5468 16.1021 16.3244 16.3244C16.1021 16.5468 15.9392 16.8214 15.8508 17.1232C15.7624 17.4249 15.7513 17.744 15.8184 18.0512C15.8856 18.3584 16.029 18.6437 16.2353 18.881C16.4416 19.1183 16.7042 19.2999 16.9991 19.4091C17.3335 19.5336 17.6402 19.7818 17.6927 20.135C17.7097 20.2485 17.6998 20.3644 17.6639 20.4734C17.6279 20.5824 17.5669 20.6814 17.4858 20.7626L16.2785 21.9699C16.1108 22.1381 15.9116 22.2715 15.6922 22.3625C15.4727 22.4535 15.2375 22.5002 15 22.5C14.7626 22.5003 14.5276 22.4537 14.3083 22.3628C14.089 22.272 13.8898 22.1387 13.7223 21.9706L12.5465 20.7948C12.4615 20.7097 12.3577 20.6457 12.2435 20.6079C12.1293 20.5702 12.0079 20.5597 11.8889 20.5774C11.5192 20.6329 11.259 20.9553 11.124 21.3032C11.0109 21.5936 10.8271 21.8512 10.5894 22.0527C10.3517 22.2542 10.0675 22.3933 9.76247 22.4573C9.45747 22.5214 9.14132 22.5084 8.84262 22.4195C8.54392 22.3306 8.27209 22.1686 8.05172 21.9483C7.83136 21.7279 7.66941 21.4561 7.58052 21.1574C7.49164 20.8587 7.47862 20.5425 7.54266 20.2375C7.60669 19.9325 7.74576 19.6483 7.94727 19.4106C8.14878 19.1728 8.40638 18.9891 8.69676 18.876C9.04469 18.741 9.36713 18.4808 9.42187 18.1111C9.43965 17.9922 9.42931 17.8708 9.39168 17.7566C9.35404 17.6424 9.29016 17.5386 9.20516 17.4535L8.0294 16.2777C7.86132 16.1102 7.72802 15.911 7.63717 15.6917C7.54631 15.4724 7.4997 15.2374 7.5 15C7.5 14.5373 7.67697 14.0747 8.0294 13.7223L9.17367 12.578C9.35363 12.398 9.60933 12.3133 9.86128 12.3508C10.2475 12.4085 10.5189 12.7467 10.6659 13.1081C10.7826 13.3944 10.9683 13.6473 11.2065 13.8444C11.4447 14.0415 11.7279 14.1766 12.031 14.2378C12.334 14.2989 12.6474 14.2842 12.9434 14.1948C13.2394 14.1055 13.5086 13.9443 13.7272 13.7257C13.9458 13.5071 14.107 13.2379 14.1963 12.9419C14.2857 12.6459 14.3004 12.3325 14.2393 12.0295C14.1781 11.7264 14.043 11.4432 13.8459 11.205C13.6488 10.9668 13.3959 10.7811 13.1096 10.6644C12.7482 10.5174 12.41 10.246 12.3523 9.85978C12.3148 9.60783 12.3988 9.35288 12.5795 9.17217L13.723 8.02865C13.8906 7.86079 14.0896 7.72768 14.3088 7.63696C14.5279 7.54624 14.7628 7.4997 15 7.5C15.4627 7.5 15.9253 7.67697 16.2777 8.0294L17.4535 9.20516C17.626 9.37763 17.8704 9.45861 18.1111 9.42262C18.4808 9.36713 18.741 9.04469 18.876 8.69676C18.9891 8.40638 19.1728 8.14878 19.4106 7.94727C19.6483 7.74576 19.9325 7.60669 20.2375 7.54266C20.5425 7.47862 20.8587 7.49164 21.1574 7.58052C21.4561 7.66941 21.7279 7.83136 21.9483 8.05172C22.1686 8.27209 22.3306 8.54392 22.4195 8.84262C22.5084 9.14132 22.5214 9.45747 22.4573 9.76247C22.3933 10.0675 22.2542 10.3517 22.0527 10.5894C21.8512 10.8271 21.5936 11.0109 21.3032 11.124C20.9553 11.259 20.6329 11.5184 20.5781 11.8881Z" stroke="#9B59B6" stroke-width="2" stroke-linecap="round" stroke-linejoin="round"/>
</g>
<defs>
<clipPath id="clip0_1071_841">
<rect width="17" height="17" fill="white" transform="translate(6.5 6.5)"/>
</clipPath>
</defs>
</svg>
