<svg width="30" height="30" viewBox="0 0 30 30" fill="none" xmlns="http://www.w3.org/2000/svg">
<rect width="30" height="30" rx="15" fill="#22c55e" fill-opacity="0.4"/>
<g clip-path="url(#clip0_1071_833)">
<path d="M9 18C8.175 18 7.5 17.325 7.5 16.5V9C7.5 8.175 8.175 7.5 9 7.5H16.5C17.325 7.5 18 8.175 18 9M13.5 12H21C21.8284 12 22.5 12.6716 22.5 13.5V21C22.5 21.8284 21.8284 22.5 21 22.5H13.5C12.6716 22.5 12 21.8284 12 21V13.5C12 12.6716 12.6716 12 13.5 12Z" stroke="#27A65F" stroke-width="2" stroke-linecap="round" stroke-linejoin="round"/>
</g>
<defs>
<clipPath id="clip0_1071_833">
<rect width="17" height="17" fill="white" transform="translate(6.5 6.5)"/>
</clipPath>
</defs>
</svg>
