<?xml version="1.0" encoding="UTF-8"?>
<svg id="Layer_2" data-name="Layer 2" xmlns="http://www.w3.org/2000/svg" viewBox="0 0 120 120">
  <defs>
    <style>
      .cls-1 {
        fill: #1a1a1a;
      }

      .cls-1, .cls-2 {
        stroke-width: 0px;
      }

      .cls-2 {
        fill: #fff;
      }
    </style>
  </defs>
  <g id="MSCOM_Icons" data-name="MSCOM Icons">
    <g id="Link-List-Icons-Xbox-Games-Consoles">
      <g id="Bounding_Box" data-name="Bounding Box">
        <rect class="cls-2" width="120" height="120"/>
      </g>
      <g id="Xbox_Orb" data-name="Xbox Orb">
        <path class="cls-1" d="M47.65,40.01c-1.32,1.55-2.81,3.43-4.48,5.65-1.67,2.21-3.37,4.61-5.12,7.21-1.74,2.59-3.45,5.29-5.12,8.09s-3.16,5.57-4.48,8.31c-1.32,2.74-2.38,5.38-3.19,7.91-.81,2.53-1.21,4.81-1.21,6.84,0,1.11.15,2.15.44,3.12l-.04.22c-.12,0-.21-.03-.27-.09-1.49-1.88-2.81-3.9-3.96-6.09-1.14-2.18-2.1-4.44-2.88-6.77-.78-2.33-1.36-4.71-1.76-7.14-.4-2.43-.59-4.85-.59-7.25,0-2.93.29-5.87.88-8.81.58-2.94,1.45-5.8,2.59-8.57,1.14-2.77,2.55-5.4,4.22-7.89,1.67-2.49,3.57-4.75,5.71-6.77.12-.12.34-.2.68-.24.34-.04.55-.07.64-.07.91,0,1.89.22,2.97.66,1.07.44,2.17,1.01,3.32,1.71,1.14.7,2.29,1.49,3.43,2.37,1.14.88,2.23,1.76,3.25,2.66,1.03.9,1.96,1.75,2.81,2.57s1.57,1.51,2.16,2.07l.04.18-.04.13h0ZM60.13,51.17c1.08.82,2.35,1.85,3.8,3.1,1.45,1.25,3,2.65,4.63,4.2,1.64,1.55,3.33,3.22,5.08,5.01,1.74,1.79,3.44,3.63,5.1,5.54,1.66,1.9,3.22,3.82,4.7,5.76,1.48,1.93,2.78,3.82,3.89,5.65,1.11,1.83,1.99,3.59,2.64,5.27.64,1.68.97,3.23.97,4.63,0,.67-.1,1.31-.31,1.91-.21.6-.54,1.15-1.01,1.65-.62.62-1.32,1.21-2.11,1.8-.79.58-1.55,1.13-2.29,1.62-3.75,2.52-7.76,4.43-12.04,5.73-4.28,1.3-8.67,1.96-13.18,1.96s-8.91-.65-13.18-1.96c-4.28-1.3-8.29-3.21-12.04-5.73-.73-.5-1.49-1.04-2.29-1.62-.79-.58-1.49-1.19-2.11-1.8-.47-.5-.81-1.05-1.01-1.65s-.31-1.24-.31-1.91c0-1.4.32-2.95.97-4.63s1.53-3.44,2.64-5.27c1.11-1.83,2.41-3.71,3.89-5.65,1.48-1.93,3.05-3.85,4.7-5.76,1.66-1.9,3.35-3.75,5.1-5.54,1.74-1.79,3.43-3.46,5.08-5.01,1.64-1.55,3.19-2.95,4.63-4.2s2.72-2.28,3.8-3.1l.13-.09.13.09h0ZM36.4,21.85l.09-.22c3.66-2.2,7.42-3.85,11.29-4.96,3.87-1.11,7.94-1.67,12.22-1.67s8.33.55,12.17,1.65c3.84,1.1,7.59,2.74,11.25,4.95l.09.22-.22.04c-.91-.2-1.9-.31-2.99-.31-1.64,0-3.35.2-5.12.59s-3.54.92-5.3,1.56c-1.76.64-3.47,1.37-5.14,2.17-1.67.81-3.22,1.6-4.66,2.39l-.09.04-.09-.04c-1.4-.79-2.94-1.58-4.61-2.37-1.67-.79-3.38-1.51-5.14-2.16-1.76-.64-3.52-1.17-5.3-1.58-1.77-.41-3.46-.62-5.08-.62-.53,0-1.05.02-1.58.07-.53.04-1.05.14-1.58.28l-.22-.04h0ZM90.23,27.65c.14,0,.37.02.68.07.31.04.54.13.68.24,2.14,2.02,4.04,4.28,5.71,6.77,1.67,2.49,3.08,5.12,4.22,7.89,1.14,2.77,2.01,5.62,2.59,8.57s.88,5.88.88,8.81c0,2.4-.2,4.82-.59,7.25-.4,2.43-.98,4.81-1.76,7.14-.78,2.33-1.74,4.59-2.88,6.77-1.14,2.18-2.46,4.21-3.96,6.09-.06.06-.15.09-.27.09l-.05-.22c.29-.97.44-2.01.44-3.12,0-2.02-.4-4.3-1.21-6.84-.81-2.53-1.86-5.17-3.16-7.91-1.3-2.74-2.8-5.52-4.48-8.33-1.68-2.81-3.4-5.52-5.14-8.11-1.74-2.59-3.46-4.99-5.14-7.21-1.69-2.21-3.17-4.09-4.46-5.65l-.05-.13s.05-.05.05-.07c0-.01.01-.04.04-.07.56-.56,1.27-1.25,2.13-2.07s1.81-1.68,2.83-2.57c1.03-.9,2.1-1.78,3.23-2.66,1.13-.88,2.25-1.67,3.38-2.37,1.13-.7,2.23-1.27,3.29-1.71,1.07-.44,2.06-.66,2.97-.66Z"/>
      </g>
    </g>
  </g>
</svg>