<svg version="1.2" xmlns="http://www.w3.org/2000/svg" viewBox="0 0 72 75" width="72" height="75"><defs><clipPath clipPathUnits="userSpaceOnUse" id="cp1"><path d="m-1372-1578h1920v7948h-1920z"/></clipPath></defs><style>.a{fill:white}</style><g clip-path="url(#cp1)"><path fill-rule="evenodd" class="a" d="m33.7 35.6c-9.8 0-17.8-7.9-17.8-17.7-0.1-9.9 7.9-17.9 17.7-17.9 9.8 0 17.8 8 17.9 17.7 0 9.9-7.9 17.8-17.8 17.9zm-0.8-4c7.3 0.6 14-5.3 14.6-12.7 0.5-7.3-4.8-14.5-13.3-14.9-7.4-0.3-13.9 5.2-14.3 13.1-0.5 7.5 5.4 14.2 13 14.5z"/><path fill-rule="evenodd" class="a" d="m71.3 45.9c-0.3 0.4-0.5 1.1-1 1.4-2.5 1.8-3.3 4.1-2.2 7 0.3 1 0.2 2-0.7 2.7-1 0.6-2 0.4-2.8-0.3-2.2-1.8-4.3-1.7-6.6 0.1-0.8 0.6-1.8 0.8-2.7 0.2-0.9-0.7-1-1.7-0.7-2.7 1-2.8 0.5-5-2-6.8-0.9-0.5-1.4-1.4-1-2.5 0.3-1.1 1.3-1.5 2.3-1.5 2.7 0.1 4.5-1 5.2-3.8 0.1-0.3 0.2-0.7 0.5-0.9 0.5-0.5 1.1-1.1 1.8-1.1 0.6 0 1.4 0.6 1.7 1.1 0.7 1 1 2.2 1.6 3.2 0.3 0.5 0.9 0.9 1.5 1.1 1 0.3 2.1 0.3 3.1 0.5 1.2 0.2 1.9 0.9 2 2.3zm-13.6 1.2c1.6 1.2 2 2.6 1.3 4.7 1.7-1.3 3.1-1.2 4.6-0.3-0.7-1.9 0-3.2 1.4-4.5-2 0-3-0.9-3.7-2.6-0.5 1.9-1.9 2.5-3.6 2.7z"/><path class="a" d="m17.6 32.5c-2 0.7-4 1.3-5.8 2.3-5.2 2.9-7.7 7.5-7.8 13.4-0.1 7.7 0 15.4 0 23.1 0 0.4 0 0.8 0 1.2-0.2 1-0.8 1.5-1.8 1.6-0.9 0.1-1.7-0.3-2-1.2-0.1-0.4-0.2-0.9-0.2-1.3 0-7.9 0-15.8 0-23.7 0.1-8.6 5.8-16.1 14-18.4 0.8-0.2 1.3-0.2 1.8 0.6 0.5 0.9 1.2 1.7 1.8 2.4z"/><path class="a" d="m63.3 60.8l4 0.6c0 3.6 0 7.2 0 10.8 0 1.2-0.9 2-2 2-1.1 0-2-0.9-2-2.1 0-2.1 0-4.2 0-6.3q0-2.5 0-5z"/><path class="a" d="m17.9 68.3c0 1.3 0 2.5-0.1 3.8 0 1.2-0.8 2.1-1.9 2.1-1.1 0-2-0.9-2-2.1q-0.1-3.8 0-7.6c0-1.4 0.9-2.2 2-2.2 1.2 0.1 1.9 0.9 1.9 2.2 0.1 1.3 0.1 2.5 0.1 3.8z"/><path class="a" d="m53.4 68.3c0 1.3 0.1 2.5 0 3.8 0 1.2-0.8 2-1.9 2.1-1.1 0-2-0.8-2-2.1q-0.1-3.9 0-7.7c0-1.3 0.9-2.1 2-2.1 1.1 0.1 1.9 0.9 1.9 2.2 0.1 1.2 0 2.5 0 3.8z"/><path class="a" d="m60.6 33.4c-1.4 0.7-2.5 1.3-3.6 1.9q-3.5-1.4-7.2-2.8c0.6-0.8 1.3-1.8 2.1-2.8 0.2-0.2 0.6-0.4 0.9-0.3 2.9 0.7 5.5 2.1 7.8 4z"/></g></svg>