<svg version="1.2" xmlns="http://www.w3.org/2000/svg" viewBox="0 0 89 71" width="89" height="71"><defs><clipPath clipPathUnits="userSpaceOnUse" id="cp1"><path d="m-969-1715h1920v7948h-1920z"/></clipPath></defs><style>.a{fill:white}</style><g clip-path="url(#cp1)"><path fill-rule="evenodd" class="a" d="m25.1 62.9h38.7c-0.4-1.7-0.6-3.3-1.1-4.8-2.1-7.2-6.6-12.7-12.9-16.7-2-1.3-4.1-2.3-6.2-3.3-11.3-5.5-17.7-14.9-20.6-26.8-0.8-3.1-1-6.3-0.9-9.4 0.1-1.4 0.5-1.9 1.9-1.9q20.5 0 41 0.1c1.3 0 1.8 0.5 1.8 1.7 0.1 10.4-2.7 19.8-9.2 28-1.5 1.8-3.4 3.3-5.2 4.8-0.8 0.7-1.8 0.6-2.3-0.2-0.6-0.9-0.2-1.6 0.5-2.1 7.3-5.5 10.6-13.3 12.5-21.8 0.2-0.9 0.4-1.9 0.6-3h-38.5c0.4 1.9 0.8 3.6 1.3 5.4 2.4 7.7 6.4 14.4 13 19.2 2 1.5 4.3 2.7 6.6 3.8 5.9 2.9 11.2 6.7 15 12.2 3.7 5.1 5.7 10.8 5.6 17.2 0 1.1 0 2.3 0 3.4 0 1.4-0.5 1.9-1.9 1.9q-0.3 0-0.7 0-19.7 0-39.4 0c-2.4 0-2.6-0.4-2.7-2.7-0.3-8.1 2.1-15.4 6.9-21.9 2.1-2.9 4.8-5.2 7.8-7.2 0.3-0.1 0.7-0.4 1-0.4 0.5 0.1 1.3 0.3 1.6 0.7 0.2 0.3 0.1 1.1-0.2 1.6-0.2 0.4-0.8 0.7-1.3 1-7.5 5-11.1 12.3-12.7 21.2zm0 4.6h38.7c-0.1-0.5-0.1-1-0.1-1.5h-38.6zm38.7-64.5h-38.6v1.4h38.6z"/><path class="a" d="m7.7 17.6c-1.5-0.2-2.9-0.3-4.3-0.4-0.3-0.1-0.7-0.1-1-0.2-1-0.2-1.5-0.8-1.5-1.8 0-0.9 0.9-1.7 1.8-1.7q5.3 0.4 10.6 1c1.1 0.1 1.6 0.9 1.6 2q-0.2 5-0.4 10c-0.1 1.3-0.8 1.9-1.9 1.9-1.1-0.1-1.7-0.9-1.7-2.1q0-3.3 0-6.6c0 0-0.1 0-0.2 0-4.5 5.7-7.5 11.9-7 19.3 0.4 6.4 3.2 11.7 7.3 16.5 0.5 0.5 1 1 1.5 1.5q1.3 1.5 0.2 2.7c-0.8 0.7-1.9 0.8-2.8-0.1-1.2-1.3-2.4-2.6-3.5-4-4.5-6.2-7.1-13.1-6.3-20.9 0.6-5.4 2.8-10.2 5.9-14.7 0.5-0.7 1.1-1.5 1.7-2.4z"/><path class="a" d="m77.9 52.5c7.2-8.4 9.4-18.3 5.1-27.9-1.5-3.3-3.5-6.3-6.1-8.9q-0.4-0.3-0.7-0.7c-0.7-0.9-0.7-1.8 0-2.5 0.7-0.7 1.8-0.8 2.5 0 1.4 1.4 2.7 2.7 3.9 4.3 4.2 5.8 6.6 12.3 6.2 19.6-0.3 5.3-2.3 10-5.1 14.4-0.8 1.2-1.6 2.4-2.6 3.8 1.2 0.1 2.3 0.2 3.4 0.3 0.5 0.1 1.1 0.1 1.6 0.2 1.3 0.2 1.9 1 1.8 2-0.2 1.1-1 1.7-2.3 1.6q-2.4-0.3-4.8-0.5-2.4-0.2-4.8-0.4c-1.5-0.2-2-0.8-2-2.2q0.1-4.9 0.3-9.8c0.1-1.2 0.8-2 1.9-2 1.1 0 1.7 0.8 1.7 2.2q0 3.2 0 6.5z"/></g></svg>