<svg width="14" height="16" viewBox="0 0 14 16" fill="none" xmlns="http://www.w3.org/2000/svg"><path d="M11.6593 15.3557C10.7589 16.1979 9.76546 16.0666 8.81854 15.6695C7.81182 15.2644 6.89149 15.2388 5.82828 15.6695C4.50426 16.2203 3.80155 16.0602 3.00415 15.3557C-1.49786 10.8883 -0.833353 4.08311 4.28331 3.82691C5.52427 3.89096 6.39311 4.48821 7.12406 4.53785C8.21052 4.32489 9.25047 3.71483 10.4133 3.79489C11.8105 3.90377 12.8554 4.43538 13.5531 5.3913C10.6791 7.05657 11.3603 10.7073 14 11.7321C13.4717 13.0691 12.7939 14.3902 11.6576 15.3669L11.6593 15.3557ZM7.02439 3.77888C6.88982 1.79336 8.55939 0.160122 10.4798 0C10.7439 2.28974 8.32017 4.00305 7.02439 3.77888Z" fill="black"></path></svg>