<svg width="14" height="16" viewBox="0 0 14 16" fill="none" xmlns="http://www.w3.org/2000/svg"><path fill-rule="evenodd" clip-rule="evenodd" d="M0.088012 0.571735C0.0310801 0.726729 0 0.910797 0 1.121V14.8786C0 15.0894 0.0311427 15.2736 0.0881839 15.4286L7.32808 7.9997L0.088012 0.571735ZM0.590122 15.9564C0.85223 16.0466 1.18264 15.9995 1.54068 15.7912L10.0736 10.8165L7.83627 8.52109L0.590122 15.9564ZM10.7221 10.4391L13.3647 8.8987C14.2118 8.40415 14.2118 7.59609 13.3647 7.10217L10.7211 5.561L8.34443 7.99966L10.7221 10.4391ZM10.073 5.18317L1.54068 0.209061C1.18252 0.000250885 0.852017 -0.0466058 0.589868 0.0438429L7.83624 7.47828L10.073 5.18317Z" fill="#101010"></path></svg>