<svg width="34" height="31" viewBox="0 0 34 31" fill="none" xmlns="http://www.w3.org/2000/svg">
<path d="M31.2162 30.3505H3.70013C2.17801 30.3505 0.943359 29.25 0.943359 27.8934V12.8421C0.943359 11.4854 2.17801 10.385 3.70013 10.385H31.2162C32.7383 10.385 33.973 11.4854 33.973 12.8421V27.8934C33.973 29.25 32.7383 30.3505 31.2162 30.3505Z" fill="#00AAFF"/>
<path d="M28.1176 5.66138H6.72684C5.45165 5.66138 4.41602 6.58443 4.41602 7.72099V9.33058H30.4284V7.72099C30.4284 6.58114 29.3928 5.66138 28.1176 5.66138Z" fill="#FC592D"/>
<path d="M25.647 0.888428H9.34598C8.07079 0.888428 7.03516 1.81148 7.03516 2.94804V4.55763H27.9615V2.94804C27.9579 1.81148 26.9259 0.888428 25.647 0.888428Z" fill="#FFCE00"/>
</svg>
