<svg width="52" height="62" viewBox="0 0 52 62" fill="none" xmlns="http://www.w3.org/2000/svg">
<path d="M40.1097 11.765C40.1097 11.765 40.9451 1.2623 30.635 0.0646374C21.7988 -0.77745 19.1086 6.88663 19.1086 6.88663C19.1086 6.88663 16.4481 4.49851 12.8377 6.44937C9.60563 8.31133 10.1771 11.7205 10.1771 11.7205C10.1771 11.7205 3 13.0227 3 19.8507C3.15961 26.6703 10.7924 26.7387 10.7924 26.7387H22.8285V19.5312H18.967L25.4028 13.5248L31.8385 19.5312H27.9771V26.7387H38.8753C38.8753 26.7387 45.9804 26.746 46.9779 20.2579C47.4529 13.1632 40.1097 11.765 40.1097 11.765Z" fill="#BEC4D5"/>
<path d="M2.324 39.242V45.416C2.324 46.284 2.534 46.928 2.954 47.348C3.38333 47.768 3.976 47.978 4.732 47.978C5.47867 47.978 6.062 47.768 6.482 47.348C6.91133 46.928 7.126 46.284 7.126 45.416V39.242H8.4V45.402C8.4 46.214 8.23667 46.9 7.91 47.46C7.58333 48.0107 7.14 48.4213 6.58 48.692C6.02933 48.9627 5.40867 49.098 4.718 49.098C4.02733 49.098 3.402 48.9627 2.842 48.692C2.29133 48.4213 1.85267 48.0107 1.526 47.46C1.20867 46.9 1.05 46.214 1.05 45.402V39.242H2.324ZM11.7993 42.742C12.0513 42.3033 12.4246 41.9393 12.9193 41.65C13.4233 41.3513 14.0066 41.202 14.6693 41.202C15.3506 41.202 15.9666 41.3653 16.5173 41.692C17.0773 42.0187 17.5159 42.4807 17.8333 43.078C18.1506 43.666 18.3093 44.352 18.3093 45.136C18.3093 45.9107 18.1506 46.6013 17.8333 47.208C17.5159 47.8147 17.0773 48.286 16.5173 48.622C15.9666 48.958 15.3506 49.126 14.6693 49.126C14.0159 49.126 13.4373 48.9813 12.9333 48.692C12.4386 48.3933 12.0606 48.0247 11.7993 47.586V52.64H10.5253V41.328H11.7993V42.742ZM17.0073 45.136C17.0073 44.5573 16.8906 44.0533 16.6573 43.624C16.4239 43.1947 16.1066 42.868 15.7053 42.644C15.3133 42.42 14.8793 42.308 14.4033 42.308C13.9366 42.308 13.5026 42.4247 13.1013 42.658C12.7093 42.882 12.3919 43.2133 12.1493 43.652C11.9159 44.0813 11.7993 44.5807 11.7993 45.15C11.7993 45.7287 11.9159 46.2373 12.1493 46.676C12.3919 47.1053 12.7093 47.4367 13.1013 47.67C13.5026 47.894 13.9366 48.006 14.4033 48.006C14.8793 48.006 15.3133 47.894 15.7053 47.67C16.1066 47.4367 16.4239 47.1053 16.6573 46.676C16.8906 46.2373 17.0073 45.724 17.0073 45.136ZM21.2602 38.64V49H19.9862V38.64H21.2602ZM26.7775 49.126C26.0588 49.126 25.4055 48.9627 24.8175 48.636C24.2388 48.3093 23.7815 47.8473 23.4455 47.25C23.1188 46.6433 22.9555 45.9433 22.9555 45.15C22.9555 44.366 23.1235 43.6753 23.4595 43.078C23.8048 42.4713 24.2715 42.0093 24.8595 41.692C25.4475 41.3653 26.1055 41.202 26.8335 41.202C27.5615 41.202 28.2195 41.3653 28.8075 41.692C29.3955 42.0093 29.8575 42.4667 30.1935 43.064C30.5388 43.6613 30.7115 44.3567 30.7115 45.15C30.7115 45.9433 30.5342 46.6433 30.1795 47.25C29.8342 47.8473 29.3628 48.3093 28.7655 48.636C28.1682 48.9627 27.5055 49.126 26.7775 49.126ZM26.7775 48.006C27.2348 48.006 27.6642 47.8987 28.0655 47.684C28.4668 47.4693 28.7888 47.1473 29.0315 46.718C29.2835 46.2887 29.4095 45.766 29.4095 45.15C29.4095 44.534 29.2882 44.0113 29.0455 43.582C28.8028 43.1527 28.4855 42.8353 28.0935 42.63C27.7015 42.4153 27.2768 42.308 26.8195 42.308C26.3528 42.308 25.9235 42.4153 25.5315 42.63C25.1488 42.8353 24.8408 43.1527 24.6075 43.582C24.3742 44.0113 24.2575 44.534 24.2575 45.15C24.2575 45.7753 24.3695 46.3027 24.5935 46.732C24.8268 47.1613 25.1348 47.4833 25.5175 47.698C25.9002 47.9033 26.3202 48.006 26.7775 48.006ZM31.9106 45.136C31.9106 44.352 32.0693 43.666 32.3866 43.078C32.7039 42.4807 33.1379 42.0187 33.6886 41.692C34.2486 41.3653 34.8693 41.202 35.5506 41.202C36.2226 41.202 36.8059 41.3467 37.3006 41.636C37.7953 41.9253 38.1639 42.2893 38.4066 42.728V41.328H39.6946V49H38.4066V47.572C38.1546 48.02 37.7766 48.3933 37.2726 48.692C36.7779 48.9813 36.1993 49.126 35.5366 49.126C34.8553 49.126 34.2393 48.958 33.6886 48.622C33.1379 48.286 32.7039 47.8147 32.3866 47.208C32.0693 46.6013 31.9106 45.9107 31.9106 45.136ZM38.4066 45.15C38.4066 44.5713 38.2899 44.0673 38.0566 43.638C37.8233 43.2087 37.5059 42.882 37.1046 42.658C36.7126 42.4247 36.2786 42.308 35.8026 42.308C35.3266 42.308 34.8926 42.42 34.5006 42.644C34.1086 42.868 33.7959 43.1947 33.5626 43.624C33.3293 44.0533 33.2126 44.5573 33.2126 45.136C33.2126 45.724 33.3293 46.2373 33.5626 46.676C33.7959 47.1053 34.1086 47.4367 34.5006 47.67C34.8926 47.894 35.3266 48.006 35.8026 48.006C36.2786 48.006 36.7126 47.894 37.1046 47.67C37.5059 47.4367 37.8233 47.1053 38.0566 46.676C38.2899 46.2373 38.4066 45.7287 38.4066 45.15ZM41.3715 45.136C41.3715 44.352 41.5302 43.666 41.8475 43.078C42.1649 42.4807 42.5989 42.0187 43.1495 41.692C43.7095 41.3653 44.3349 41.202 45.0255 41.202C45.6229 41.202 46.1782 41.342 46.6915 41.622C47.2049 41.8927 47.5969 42.252 47.8675 42.7V38.64H49.1555V49H47.8675V47.558C47.6155 48.0153 47.2422 48.3933 46.7475 48.692C46.2529 48.9813 45.6742 49.126 45.0115 49.126C44.3302 49.126 43.7095 48.958 43.1495 48.622C42.5989 48.286 42.1649 47.8147 41.8475 47.208C41.5302 46.6013 41.3715 45.9107 41.3715 45.136ZM47.8675 45.15C47.8675 44.5713 47.7509 44.0673 47.5175 43.638C47.2842 43.2087 46.9669 42.882 46.5655 42.658C46.1735 42.4247 45.7395 42.308 45.2635 42.308C44.7875 42.308 44.3535 42.42 43.9615 42.644C43.5695 42.868 43.2569 43.1947 43.0235 43.624C42.7902 44.0533 42.6735 44.5573 42.6735 45.136C42.6735 45.724 42.7902 46.2373 43.0235 46.676C43.2569 47.1053 43.5695 47.4367 43.9615 47.67C44.3535 47.894 44.7875 48.006 45.2635 48.006C45.7395 48.006 46.1735 47.894 46.5655 47.67C46.9669 47.4367 47.2842 47.1053 47.5175 46.676C47.7509 46.2373 47.8675 45.7287 47.8675 45.15Z" fill="#7B7B7B"/>
</svg>
