<svg viewBox="0 0 40 40" fill="none" xmlns="http://www.w3.org/2000/svg"><circle cx="20" cy="20" r="20" fill="#1A2224"/><g clip-path="url(#a)" stroke="#fff" stroke-opacity=".7" stroke-linecap="round" stroke-linejoin="round"><path d="M24.333 11.333h-8.666a4.333 4.333 0 0 0-4.334 4.334v8.666a4.333 4.333 0 0 0 4.334 4.334h8.666a4.333 4.333 0 0 0 4.334-4.334v-8.666a4.333 4.333 0 0 0-4.334-4.334Z" stroke-width="1.5"/><path d="M20 23.25a3.25 3.25 0 1 0 0-6.5 3.25 3.25 0 0 0 0 6.5Z" stroke-width="1.5"/><path d="M24.875 15.125v.001" stroke-width="2.375"/></g><defs><clipPath id="a"><path fill="#fff" transform="translate(7 7)" d="M0 0h26v26H0z"/></clipPath></defs></svg>