<svg viewBox="0 0 140 47" xmlns="http://www.w3.org/2000/svg"><defs><linearGradient x1="52.988%" y1="95.567%" x2="43.639%" y2="27.836%" id="a"><stop stop-color="#00A0FF" offset="0%"/><stop stop-color="#00A1FF" offset=".657%"/><stop stop-color="#00BEFF" offset="26.01%"/><stop stop-color="#00D2FF" offset="51.22%"/><stop stop-color="#00DFFF" offset="76.04%"/><stop stop-color="#00E3FF" offset="100%"/></linearGradient><linearGradient x1="107.59%" y1="50.868%" x2="-130.464%" y2="50.868%" id="b"><stop stop-color="#FFE000" offset="0%"/><stop stop-color="#FFBD00" offset="40.87%"/><stop stop-color="orange" offset="77.54%"/><stop stop-color="#FF9C00" offset="100%"/></linearGradient><linearGradient x1="86.725%" y1="61.603%" x2="-50.48%" y2="-2.261%" id="c"><stop stop-color="#FF3A44" offset="0%"/><stop stop-color="#C31162" offset="100%"/></linearGradient><linearGradient x1="-19.329%" y1="87.583%" x2="41.841%" y2="59.069%" id="d"><stop stop-color="#32A071" offset="0%"/><stop stop-color="#2DA771" offset="6.85%"/><stop stop-color="#15CF74" offset="47.62%"/><stop stop-color="#06E775" offset="80.09%"/><stop stop-color="#00F076" offset="100%"/></linearGradient><linearGradient x1="86.247%" y1="55.472%" x2="-50.142%" y2="35.389%" id="e"><stop stop-color="#CC2E36" offset="0%"/><stop stop-color="#9C0E4E" offset="100%"/></linearGradient><linearGradient x1="80.105%" y1="1531.773%" x2="36.394%" y2="449.571%" id="f"><stop stop-color="#008DE0" offset="0%"/><stop stop-color="#008DE0" offset=".657%"/><stop stop-color="#00A7E0" offset="26.01%"/><stop stop-color="#00B8E0" offset="51.22%"/><stop stop-color="#00C4E0" offset="76.04%"/><stop stop-color="#00C7E0" offset="100%"/></linearGradient><linearGradient x1="112.786%" y1="100.022%" x2="-288.225%" y2="100.022%" id="g"><stop stop-color="#E0C500" offset="0%"/><stop stop-color="#E0A600" offset="40.87%"/><stop stop-color="#E09100" offset="77.54%"/><stop stop-color="#E08900" offset="100%"/></linearGradient><linearGradient x1="112.785%" y1="-.023%" x2="-288.198%" y2="-.023%" id="h"><stop stop-color="#FFE840" offset="0%"/><stop stop-color="#FFCE40" offset="40.87%"/><stop stop-color="#FFBC40" offset="77.54%"/><stop stop-color="#FFB540" offset="100%"/></linearGradient><linearGradient x1="79.799%" y1="23.384%" x2="36.533%" y2="-1009.839%" id="i"><stop stop-color="#40B8FF" offset="0%"/><stop stop-color="#40B9FF" offset=".657%"/><stop stop-color="#40CEFF" offset="26.01%"/><stop stop-color="#40DDFF" offset="51.22%"/><stop stop-color="#40E7FF" offset="76.04%"/><stop stop-color="#40EAFF" offset="100%"/></linearGradient><linearGradient x1="-18.807%" y1="59.999%" x2="42.096%" y2="51.03%" id="j"><stop stop-color="#65B895" offset="0%"/><stop stop-color="#62BD95" offset="6.85%"/><stop stop-color="#50DB97" offset="47.62%"/><stop stop-color="#44ED98" offset="80.09%"/><stop stop-color="#40F498" offset="100%"/></linearGradient></defs><g fill="none"><path d="M128.851 0H11.155c-.429 0-.853 0-1.28.002-.359.003-.714.01-1.076.015-.785.01-1.57.08-2.344.208a7.533 7.533 0 0 0-4.118 2.122A7.352 7.352 0 0 0 .96 4.25a7.78 7.78 0 0 0-.732 2.237c-.13.777-.2 1.564-.21 2.352-.01.36-.011.722-.017 1.082v27.16c.006.364.007.718.018 1.083.01.788.08 1.574.21 2.352.128.779.375 1.533.73 2.237.355.703.82 1.344 1.38 1.897a7.342 7.342 0 0 0 1.893 1.385c.7.358 1.45.608 2.224.741a15.61 15.61 0 0 0 2.344.208c.362.008.717.013 1.075.013.428.002.852.002 1.281.002h117.696c.42 0 .848 0 1.268-.002.357 0 .722-.005 1.079-.013a15.47 15.47 0 0 0 2.34-.208 7.937 7.937 0 0 0 2.232-.74c.7-.358 1.34-.826 1.892-1.386a7.512 7.512 0 0 0 1.383-1.897 7.794 7.794 0 0 0 .724-2.237c.13-.778.203-1.564.217-2.352.005-.365.005-.719.005-1.084.009-.426.009-.851.009-1.285v-24.59c0-.431 0-.858-.01-1.284 0-.36 0-.722-.004-1.082a15.937 15.937 0 0 0-.217-2.352 7.8 7.8 0 0 0-.724-2.237 7.582 7.582 0 0 0-3.275-3.29 7.894 7.894 0 0 0-2.232-.736 15.197 15.197 0 0 0-2.34-.208c-.357-.005-.722-.012-1.079-.015L128.851 0z" fill="#FFF"/><path d="M9.88 45.972c-.357 0-.704-.005-1.058-.013a14.78 14.78 0 0 1-2.187-.191 6.863 6.863 0 0 1-1.938-.644 6.326 6.326 0 0 1-1.634-1.195 6.25 6.25 0 0 1-1.194-1.64 6.744 6.744 0 0 1-.636-1.948 14.647 14.647 0 0 1-.194-2.203c-.008-.248-.018-1.073-.018-1.073V9.922s.01-.812.018-1.051a14.49 14.49 0 0 1 .193-2.2c.112-.68.326-1.338.636-1.953a6.313 6.313 0 0 1 1.188-1.642 6.513 6.513 0 0 1 3.575-1.84 14.53 14.53 0 0 1 2.194-.193l1.055-.015h120.234l1.068.015c.728.009 1.455.073 2.174.191a6.92 6.92 0 0 1 1.955.644 6.559 6.559 0 0 1 2.825 2.843c.305.61.516 1.264.626 1.938.122.733.19 1.474.204 2.217.003.333.003.69.003 1.046.01.44.01.86.01 1.283v24.591c0 .427 0 .843-.01 1.263 0 .383 0 .733-.004 1.093-.014.73-.08 1.458-.2 2.178a6.764 6.764 0 0 1-.632 1.962 6.438 6.438 0 0 1-1.188 1.628 6.334 6.334 0 0 1-1.638 1.202 6.837 6.837 0 0 1-1.951.646c-.723.118-1.454.182-2.187.191-.35.008-.7.013-1.05.013l-1.268.002L9.88 45.972z" fill="#000"/><g fill="#FFF"><path d="M50.833 13.652c0 .88-.258 1.58-.773 2.103-.585.62-1.348.932-2.286.932-.898 0-1.662-.315-2.29-.946-.629-.63-.943-1.412-.943-2.345 0-.933.314-1.714.943-2.345a3.112 3.112 0 0 1 2.29-.946c.446 0 .872.088 1.277.264.405.177.73.41.973.704l-.546.554c-.412-.498-.98-.747-1.704-.747a2.35 2.35 0 0 0-1.7.7c-.477.466-.716 1.071-.716 1.816 0 .745.239 1.35.717 1.817a2.35 2.35 0 0 0 1.7.7c.694 0 1.273-.235 1.737-.704.301-.306.475-.73.522-1.276h-2.26v-.757h3.015c.03.165.044.323.044.476"/><path d="M50.833 13.652h-.104c0 .86-.249 1.527-.742 2.028l-.001.001v.001c-.568.6-1.296.899-2.212.9-.874-.001-1.606-.303-2.217-.915-.61-.613-.91-1.362-.912-2.27.001-.91.303-1.658.912-2.271.611-.612 1.343-.915 2.217-.916.432 0 .844.085 1.236.256.393.171.704.396.935.675l.08-.068-.074-.074-.547.554.073.074.08-.067c-.43-.523-1.036-.787-1.783-.785a2.452 2.452 0 0 0-1.771.729c-.5.485-.75 1.125-.749 1.892 0 .768.25 1.407.749 1.893.494.484 1.092.73 1.771.728.718.002 1.33-.245 1.811-.734.322-.326.504-.779.552-1.341l.01-.114h-2.27v-.547h2.912v-.105l-.102.019c.028.159.042.31.042.457h.207c0-.16-.014-.324-.045-.494l-.015-.087H47.67v.967h2.364v-.105l-.104-.009c-.045.528-.211.926-.491 1.21-.446.45-.993.672-1.665.673-.63 0-1.166-.22-1.627-.67-.457-.447-.684-1.018-.686-1.74.002-.724.229-1.295.686-1.742.461-.45.996-.67 1.627-.67.701.002 1.23.236 1.624.71l.073.088.627-.636.067-.068-.061-.073a2.666 2.666 0 0 0-1.012-.733A3.277 3.277 0 0 0 47.774 10c-.922 0-1.717.327-2.363.977-.648.648-.974 1.462-.973 2.42-.001.956.325 1.77.974 2.42.645.648 1.44.976 2.362.975.96 0 1.757-.322 2.361-.965l-.075-.072.073.074c.538-.544.804-1.278.803-2.177h-.103m4.78-2.632h-2.834v1.998h2.555v.757H52.78v1.997h2.834v.774H51.98v-6.3h3.633v.774"/><path d="M55.613 11.02v-.105h-2.938v2.208h2.556v.546h-2.556v2.208h2.834v.564h-3.425v-6.09h3.425v.67h.104v-.106.105h.103v-.879h-3.84v6.51h3.84v-.984h-2.833V13.88h2.555v-.967h-2.555v-1.788h2.833v-.105h-.103m3.371 5.526h-.8V11.02h-1.738v-.774h4.276v.774h-1.738v5.526"/><path d="M58.984 16.546v-.105h-.696v-5.526H56.55v-.564h4.068v.564h-1.737v5.631h.103v-.105.105h.104v-5.42h1.738v-.985h-4.483v.984h1.737v5.526h1.008v-.105h-.104m4.832 0v-6.3h.799v6.3h-.8"/><path d="M63.816 16.546h.104v-6.195h.591v6.09h-.695v.105h.104-.104v.105h.903v-6.51h-1.007v6.51h.104v-.105m4.346 0h-.8V11.02h-1.738v-.774h4.275v.774h-1.737v5.526"/><path d="M68.162 16.546v-.105h-.697v-5.526h-1.738v-.564h4.069v.564h-1.738v5.631h.104v-.105.105h.103v-5.42h1.738v-.985H65.52v.984h1.738v5.526h1.007v-.105h-.103m5.86-1.341a2.27 2.27 0 0 0 1.69.707c.667 0 1.23-.235 1.69-.707.461-.472.692-1.076.692-1.809 0-.733-.23-1.336-.692-1.808a2.269 2.269 0 0 0-1.69-.708 2.27 2.27 0 0 0-1.69.708c-.46.472-.691 1.075-.691 1.808 0 .733.23 1.337.69 1.809zm3.972.527c-.612.637-1.373.955-2.282.955-.91 0-1.67-.318-2.28-.955-.613-.636-.917-1.415-.917-2.336 0-.92.304-1.7.917-2.336.61-.637 1.37-.955 2.28-.955.904 0 1.663.32 2.278.96.613.639.92 1.416.92 2.331 0 .921-.306 1.7-.916 2.336z"/><path d="m74.022 15.205-.074.073c.478.491 1.074.74 1.764.74a2.373 2.373 0 0 0 1.764-.74c.48-.491.723-1.127.722-1.882 0-.755-.241-1.39-.722-1.882a2.373 2.373 0 0 0-1.764-.74 2.375 2.375 0 0 0-1.764.74c-.48.491-.722 1.127-.72 1.882-.002.755.24 1.391.72 1.882l.074-.073.073-.074c-.44-.454-.66-1.024-.66-1.735 0-.711.22-1.281.66-1.734a2.167 2.167 0 0 1 1.617-.677 2.165 2.165 0 0 1 1.617.677c.44.453.66 1.023.661 1.734 0 .711-.22 1.281-.661 1.735a2.165 2.165 0 0 1-1.617.676 2.167 2.167 0 0 1-1.617-.676l-.073.074zm3.972.527-.075-.073c-.594.617-1.321.922-2.207.923-.886-.001-1.613-.306-2.206-.923l-.003-.003.003.003c-.594-.619-.887-1.365-.888-2.263.001-.897.294-1.644.888-2.263.593-.617 1.32-.922 2.206-.923.88.001 1.605.308 2.203.928.596.622.89 1.367.892 2.258-.002.898-.295 1.644-.888 2.263l.075.073.074.073c.629-.654.947-1.465.946-2.409 0-.939-.318-1.748-.95-2.405-.632-.659-1.423-.992-2.352-.991-.933-.001-1.727.33-2.355.987-.63.654-.947 1.465-.946 2.41 0 .943.316 1.754.946 2.408l.003.003-.003-.003c.628.657 1.422.988 2.355.987.933 0 1.727-.33 2.356-.987l-.074-.073zm2.038.814v-6.3h.974l3.024 4.901h.034l-.034-1.214v-3.687h.8v6.3h-.835l-3.164-5.138h-.034l.034 1.214v3.924h-.799"/></g><path d="M80.032 16.546h.104v-6.195h.812l3.024 4.901h.198l-.037-1.32v-3.58h.593v6.09h-.673l-3.164-5.14h-.199l.038 1.322v3.817h-.696v.105h.104-.104v.105h.903v-4.03l-.034-1.216-.104.003v.105h.034v-.105l-.088.055 3.195 5.188h.995v-6.51h-1.007v3.793l.034 1.216.104-.003v-.105h-.034v.105l.087-.056-3.054-4.95h-1.134v6.51h.104v-.105m32.522 17.85h1.935V21.27h-1.935v13.126zm17.43-8.398-2.22 5.691h-.066L125.397 26h-2.084l3.452 7.953-1.968 4.425h2.019l5.32-12.379h-2.152zm-10.975 6.907c-.635 0-1.518-.32-1.518-1.115 0-1.013 1.101-1.401 2.051-1.401.852 0 1.25.186 1.768.44-.15 1.215-1.184 2.076-2.3 2.076zm.233-7.194c-1.4 0-2.851.625-3.452 2.01l1.717.726c.368-.726 1.051-.963 1.769-.963 1 0 2.018.608 2.034 1.69v.134c-.35-.202-1.1-.506-2.018-.506-1.85 0-3.736 1.03-3.736 2.955 0 1.756 1.518 2.888 3.219 2.888 1.301 0 2.018-.591 2.469-1.284h.066v1.013h1.868v-5.032c0-2.33-1.717-3.63-3.936-3.63zm-11.959 1.885h-2.752v-4.5h2.752c1.447 0 2.268 1.214 2.268 2.25 0 1.018-.821 2.25-2.268 2.25zm-.05-6.326h-4.636v13.126h1.934v-4.973h2.703c2.144 0 4.252-1.572 4.252-4.077 0-2.504-2.108-4.076-4.252-4.076zM81.952 32.908c-1.337 0-2.457-1.134-2.457-2.69 0-1.573 1.12-2.724 2.457-2.724 1.32 0 2.355 1.151 2.355 2.724 0 1.556-1.036 2.69-2.355 2.69zm2.222-6.175h-.067c-.435-.524-1.27-.998-2.323-.998-2.205 0-4.226 1.962-4.226 4.483 0 2.504 2.02 4.449 4.226 4.449 1.053 0 1.888-.474 2.323-1.015h.067v.643c0 1.709-.903 2.622-2.356 2.622-1.186 0-1.921-.863-2.222-1.59l-1.688.71c.485 1.184 1.771 2.64 3.91 2.64 2.272 0 4.193-1.354 4.193-4.653v-8.018h-1.837v.727zm3.174 7.663h1.938V21.27h-1.938v13.127zm4.795-4.33c-.05-1.726 1.32-2.605 2.305-2.605.77 0 1.42.389 1.637.947l-3.942 1.658zm6.014-1.489c-.367-.998-1.487-2.842-3.776-2.842-2.272 0-4.16 1.81-4.16 4.466 0 2.504 1.872 4.466 4.378 4.466 2.021 0 3.191-1.252 3.676-1.98l-1.504-1.014c-.501.744-1.187 1.235-2.172 1.235-.986 0-1.688-.457-2.139-1.353l5.898-2.47-.2-.508zM51.17 27.106V29h4.477c-.133 1.066-.484 1.844-1.019 2.385-.651.66-1.67 1.387-3.458 1.387-2.757 0-4.912-2.25-4.912-5.04 0-2.792 2.155-5.042 4.912-5.042 1.487 0 2.573.593 3.375 1.354l1.32-1.336c-1.12-1.083-2.607-1.912-4.695-1.912-3.776 0-6.95 3.112-6.95 6.935 0 3.824 3.174 6.936 6.95 6.936 2.038 0 3.575-.676 4.778-1.945 1.236-1.252 1.62-3.011 1.62-4.432 0-.44-.032-.846-.1-1.184H51.17zm11.49 5.802c-1.338 0-2.49-1.117-2.49-2.707 0-1.607 1.152-2.707 2.49-2.707 1.336 0 2.488 1.1 2.488 2.707 0 1.59-1.152 2.707-2.489 2.707zm0-7.173c-2.44 0-4.428 1.878-4.428 4.466 0 2.571 1.988 4.466 4.427 4.466 2.44 0 4.427-1.895 4.427-4.466 0-2.588-1.988-4.466-4.427-4.466zm9.657 7.173c-1.336 0-2.489-1.117-2.489-2.707 0-1.607 1.153-2.707 2.49-2.707 1.336 0 2.489 1.1 2.489 2.707 0 1.59-1.153 2.707-2.49 2.707zm0-7.173c-2.439 0-4.427 1.878-4.427 4.466 0 2.571 1.988 4.466 4.427 4.466 2.44 0 4.428-1.895 4.428-4.466 0-2.588-1.988-4.466-4.428-4.466z" fill="#FFF"/><path d="M12.556 10.888c-.348.318-.556.848-.556 1.552v-.159 23.227-.153c0 .65.178 1.152.48 1.475l.077.075c.244.224.557.342.916.342.351 0 .746-.113 1.162-.353l15.053-8.66 5.17-2.974c.657-.378 1.026-.865 1.087-1.361v-.002c-.061-.498-.43-.985-1.086-1.363l-5.171-2.974-15.053-8.66c-.417-.24-.812-.353-1.164-.353-.358 0-.671.118-.915.341z" fill="#00C1FF"/><path d="M.557.747.48.822C.178 1.145 0 1.647 0 2.297v-.153 23.221-.153c0 .704.208 1.234.556 1.552l12.848-13.009L.557.747" fill="url(#a)" transform="matrix(1 0 0 -1 12 37.652)"/><path d="m17.688 9.419-4.284 4.338 4.284 4.337 5.17-2.975c.657-.378 1.026-.865 1.087-1.362v-.002c-.061-.496-.43-.984-1.086-1.361l-5.171-2.975" fill="url(#b)" transform="matrix(1 0 0 -1 12 37.654)"/><path d="M1.473 13.756c-.359 0-.672.118-.916.341l12.848 13.009 4.283-4.338-15.053-8.66c-.416-.239-.81-.352-1.162-.352" fill="url(#c)" transform="matrix(1 0 0 -1 12 51.003)"/><path d="M13.404.406.556 13.415c.244.223.557.34.915.34.352 0 .747-.113 1.164-.352l15.053-8.66L13.404.406" fill="url(#d)" transform="matrix(1 0 0 -1 12 24.303)"/><path d="M1.474 18.094c-.36 0-.673.118-.917.341a.03.03 0 0 1-.004.003l-.066.066-.007.007.077.078c.244-.223.557-.342.916-.342.351 0 .746.114 1.162.353l15.053 8.66.096-.098-.097-.056-15.052-8.66c-.38-.217-.74-.331-1.066-.35a1.918 1.918 0 0 0-.095-.002" fill="url(#e)" transform="matrix(1 0 0 -1 12 55.494)"/><path d="M.48 25.214c-.302.323-.48.825-.48 1.475v.153c0-.65.178-1.152.48-1.475l.077-.075-.077-.078" fill="url(#f)" transform="matrix(1 0 0 -1 12 62.197)"/><path d="m17.784 13.757-.096.098 5.17 2.975c.657.378 1.026.865 1.087 1.361 0-.182-.04-.364-.12-.541-.16-.357-.483-.695-.966-.973l-5.075-2.92" fill="url(#g)" transform="matrix(1 0 0 -1 12 42.09)"/><path d="M23.945 9.321c-.061.498-.43.985-1.086 1.362l-5.171 2.975.096.097 5.075-2.919c.723-.416 1.086-.966 1.086-1.515" fill="url(#h)" transform="matrix(1 0 0 -1 12 33.218)"/><path d="M0 .67v.16C0 .888.002.945.004 1v.011c.032.56.204.996.476 1.288l.076-.077C.208 1.904 0 1.374 0 .67" fill="url(#i)" transform="matrix(1 0 0 -1 12 13.11)"/><path d="M17.688.253 2.635 8.913c-.417.239-.812.352-1.164.352-.358 0-.671-.118-.915-.34l-.076.077c.024.025.048.05.074.073l.003.003c.242.22.551.339.907.34h.007c.352 0 .747-.113 1.164-.352L17.785.35h-.001l-.096-.098" fill="url(#j)" transform="matrix(1 0 0 -1 12 19.813)"/></g></svg>