<svg xmlns="http://www.w3.org/2000/svg" xmlns:xlink="http://www.w3.org/1999/xlink" width="141.207" height="141.207" viewBox="0 0 141.207 141.207"><defs><clipPath id="a"><rect width="141.207" height="141.207" transform="translate(26.073 -0.002)" fill="none"/></clipPath></defs><g transform="translate(-26.073 0.002)" clip-path="url(#a)"><path d="M932.213,567.309c.109.353.212.717.293,1.086h-2.031l.635,1.271.245.489-.131.059v3.612a2.715,2.715,0,0,1-1.211,4.855l-.01.033a4.346,4.346,0,0,1-4.21,3.259H914.931a4.345,4.345,0,0,1-4.2-3.259l-.011-.033a2.716,2.716,0,0,1-1.217-4.855v-3.671l-.429-.858-.239-.489.489-.239.342-.174h-1.548a12.5,12.5,0,0,1,24.1-1.086Zm-20,1.086a.544.544,0,0,0-.239.054l-1.684.848.484.972.711-.359a1.633,1.633,0,0,1,1.461,0l1.2.6a.546.546,0,0,0,.489,0l1.2-.6a1.633,1.633,0,0,1,1.461,0l1.2.6a.546.546,0,0,0,.489,0l1.2-.6a1.633,1.633,0,0,1,1.461,0l1.195.6a.542.542,0,0,0,.467.011l1.564-.69a1.629,1.629,0,0,1,1.319,0l1.565.69a.543.543,0,0,0,.461-.011l1.684-.842-.483-.972-.772.385a1.63,1.63,0,0,1-1.39.033l-1.5-.668a.551.551,0,0,0-.218-.049h0a.542.542,0,0,0-.217.049l-1.51.668a1.632,1.632,0,0,1-1.391-.033l-1.249-.624a.542.542,0,0,0-.244-.06h0a.547.547,0,0,0-.239.054l-1.2.609a1.633,1.633,0,0,1-1.461,0l-1.194-.6a.55.55,0,0,0-.245-.06h0a.546.546,0,0,0-.239.055l-1.2.6a1.631,1.631,0,0,1-1.46,0l-1.2-.6a.551.551,0,0,0-.245-.06h0Zm0-1.086h-2.661a11.41,11.41,0,0,1,21.512,0h-1.135l-.033-.071-.141.071H912.216ZM928.7,571.48l.739-.369h.706V572.2H910.592v-.625l.185-.092.738-.369h1.407l.739.369a1.631,1.631,0,0,0,1.46,0l.739-.369h1.407l.738.369a1.633,1.633,0,0,0,1.461,0l.739-.369h1.407l.738.369a1.629,1.629,0,0,0,1.391.032l.907-.4H926.4l.907.4A1.627,1.627,0,0,0,928.7,571.48Zm-17.227,1.8,8.89,2.667,8.9-2.667Zm-.342,1.086h.184l9.048,2.716,9.054-2.716h.179a1.63,1.63,0,0,1,0,3.259H911.13a1.63,1.63,0,1,1,0-3.259Zm.733,4.345a3.257,3.257,0,0,0,3.068,2.172h10.862a3.256,3.256,0,0,0,3.074-2.172Z" transform="translate(-892.905 -558.621)" fill="#d5d5d5" fill-rule="evenodd"/><path d="M1073.42,567.309c.108.353.212.717.293,1.086h-2.031l.635,1.271.245.489-.131.059v3.612a2.715,2.715,0,0,1-1.211,4.855l-.011.033a4.345,4.345,0,0,1-4.209,3.259h-10.862a4.345,4.345,0,0,1-4.2-3.259l-.011-.033a2.716,2.716,0,0,1-1.217-4.855v-3.671l-.429-.858-.239-.489.489-.239.342-.174h-1.548a12.5,12.5,0,0,1,24.1-1.086Zm-20,1.086a.545.545,0,0,0-.239.054l-1.684.848.484.972.711-.359a1.633,1.633,0,0,1,1.461,0l1.2.6a.546.546,0,0,0,.489,0l1.2-.6a1.634,1.634,0,0,1,1.461,0l1.195.6a.544.544,0,0,0,.488,0l1.2-.6a1.633,1.633,0,0,1,1.461,0l1.194.6a.544.544,0,0,0,.468.011l1.564-.69a1.629,1.629,0,0,1,1.319,0l1.565.69a.543.543,0,0,0,.461-.011l1.684-.842-.484-.972-.771.385a1.63,1.63,0,0,1-1.39.033l-1.5-.668a.54.54,0,0,0-.217-.049h0a.541.541,0,0,0-.217.049l-1.51.668a1.633,1.633,0,0,1-1.391-.033l-1.249-.624a.542.542,0,0,0-.244-.06h-.006a.554.554,0,0,0-.239.054l-1.2.6a1.627,1.627,0,0,1-1.461,0l-1.195-.6a.542.542,0,0,0-.244-.06h0a.546.546,0,0,0-.239.054l-1.2.6a1.627,1.627,0,0,1-1.461,0l-1.194-.6a.55.55,0,0,0-.245-.06Zm0-1.086h-2.661a11.41,11.41,0,0,1,21.512,0h-1.135l-.033-.071-.141.071Zm16.483,4.171.739-.369h.706V572.2H1051.8v-.625l.185-.092.738-.369h1.407l.738.369a1.633,1.633,0,0,0,1.461,0l.739-.369h1.407l.738.369a1.633,1.633,0,0,0,1.461,0l.739-.369h1.406l.739.369a1.627,1.627,0,0,0,1.39.032l.907-.4h1.755l.907.4a1.627,1.627,0,0,0,1.39-.032Zm-17.227,1.8,8.89,2.667,8.9-2.667Zm-.342,1.086h.184l9.048,2.716,9.054-2.716h.179a1.63,1.63,0,0,1,0,3.259h-18.465a1.63,1.63,0,1,1,0-3.259Zm.733,4.345a3.257,3.257,0,0,0,3.068,2.172H1067a3.256,3.256,0,0,0,3.074-2.172Z" transform="translate(-892.905 -558.621)" fill="#d5d5d5" fill-rule="evenodd"/><path d="M1005.6,570.035a4.888,4.888,0,0,0-4.617-3.269h-22.81a4.888,4.888,0,0,0-4.617,3.269,3.259,3.259,0,0,0,.011,6.5,4.883,4.883,0,0,0,4.606,6.528h22.81a4.889,4.889,0,0,0,4.606-6.528,3.259,3.259,0,0,0,.011-6.5Zm-4.617-2.183h-22.81a3.8,3.8,0,0,0-3.438,2.172h29.686a3.8,3.8,0,0,0-3.431-2.172Zm-5.072,14.121a4.882,4.882,0,0,0,1.814-3.8h-1.087a3.8,3.8,0,0,1-3.8,3.8h-2.357a4.881,4.881,0,0,0,1.813-3.8H991.21a3.8,3.8,0,0,1-3.8,3.8h-2.358a4.879,4.879,0,0,0,1.814-3.8H985.78a3.8,3.8,0,0,1-3.8,3.8h-3.8a3.8,3.8,0,0,1,0-7.6h22.81a3.8,3.8,0,1,1,0,7.6Zm-17.738-8.69a4.892,4.892,0,0,0-4.063,2.172h-.282a2.172,2.172,0,0,1,0-4.344h31.5a2.172,2.172,0,1,1,0,4.344h-.282a4.892,4.892,0,0,0-4.063-2.172Z" transform="translate(-892.905 -558.621)" fill="#d5d5d5" fill-rule="evenodd"/><path d="M940.159,621.076a4.345,4.345,0,1,0-4.345-4.345,4.345,4.345,0,0,0,4.345,4.345Zm3.258-4.345a3.259,3.259,0,1,1-3.258-3.258,3.259,3.259,0,0,1,3.258,3.258Zm-1.629-15.75V599.9h4.345v-3.259H940.7a2.173,2.173,0,0,0-2.173,2.173v5.431h-7.6l-.723,2.172-.363,1.086h1.189l2.069,21.725H947.22l2.069-21.725h1.19l-.364-1.086-.723-2.172h-7.6Zm-2.173-2.172v5.431H940.7v-5.431h4.344v-1.086H940.7A1.087,1.087,0,0,0,939.615,598.809Zm1.087,6.517h7.907l.364,1.086H931.344l.364-1.086Zm7.5,2.174H932.121l1.966,20.638H946.23Z" transform="translate(-892.905 -558.621)" fill="#d5d5d5" fill-rule="evenodd"/><path d="M989.038,608.585h-3.259v2.172h-3.258v2.173h-3.259v7.6h-1.629l.13,1.086L979.8,639h19.552l2.042-17.379.13-1.086H999.9v-7.6h-3.259v-2.173h-3.258V608.59Zm9.776,11.948v-6.517h-2.173v2.172h1.63v4.345Zm-1.63,0v-3.259h-2.172v3.259Zm-3.258,3.259V615.1h-2.173v10.411A5.458,5.458,0,0,0,993.926,623.792Zm-3.259,2.063V612.93H988.5v12.925a5.441,5.441,0,0,0,2.167,0Zm-3.258-.342V615.1h-2.173v8.69a5.454,5.454,0,0,0,2.173,1.723Zm-3.259-4.98v-3.259h-2.172v3.259Zm-3.259,0v-4.345h1.63v-2.172h-2.173v6.517Zm14.664-6.517v-2.173h-2.172v2.173h1.629v2.172h.543Zm-3.259,0v-4.345h-2.172v2.172h1.629v2.173Zm-3.258-2.173v-2.172h-2.173v4.345h.544v-2.173Zm-3.259,2.173v-2.173h-2.172v4.345h.543v-2.172Zm3.8,13.034A6.517,6.517,0,0,0,996,621.62h4.3l-1.917,16.293H980.772l-1.917-16.293h4.3a6.517,6.517,0,0,0,6.426,5.431Z" transform="translate(-892.905 -558.621)" fill="#d5d5d5" fill-rule="evenodd"/><path d="M1034.11,605.326v1.086h-2.172v-1.086Zm2.173,0H1035.2v1.086h1.086Zm-10.862,0v.054a2.715,2.715,0,0,0-.3,5.241l.032.136.609,2.433a1.086,1.086,0,0,0,1.053.826h.006l3.812,13.333a1.085,1.085,0,0,0,1.043.787h2.7a1.084,1.084,0,0,0,1.042-.787l3.813-13.333a1.086,1.086,0,0,0,1.059-.826l.608-2.433.033-.136a2.716,2.716,0,0,0-.3-5.241v-.054a7.6,7.6,0,0,0-15.207,0Zm2.172,0h3.259v1.086h-4.888a1.63,1.63,0,0,0,0,3.259h14.121a1.63,1.63,0,0,0,0-3.259h-1.63v-1.086h1.086a6.517,6.517,0,0,0-13.034,0Zm-.782,7.6-.543-2.173h13.512l-.543,2.173Zm4.861,14.12-3.726-13.034H1038.1l-3.725,13.034Zm-31.234,63A11.948,11.948,0,1,0,988.5,678.1a11.948,11.948,0,0,0,11.938,11.944Zm13.035-11.948a13.035,13.035,0,1,1-26.069,0h0a13.035,13.035,0,1,1,26.07,0Zm-15.414,9.629,1.108-.472a3.26,3.26,0,0,1,2.542,0l1.108.472a1.087,1.087,0,0,0,1.358-.445l.619-1.032a3.26,3.26,0,0,1,2.058-1.494l1.168-.271a1.086,1.086,0,0,0,.836-1.152l-.1-1.194a3.262,3.262,0,0,1,.787-2.423l.788-.907a1.086,1.086,0,0,0,0-1.423l-.788-.907a3.258,3.258,0,0,1-.787-2.422l.109-1.2a1.086,1.086,0,0,0-.842-1.156l-1.168-.272a3.259,3.259,0,0,1-2.064-1.493l-.613-1.032a1.087,1.087,0,0,0-1.358-.435l-1.108.467a3.26,3.26,0,0,1-2.542,0l-1.108-.472a1.087,1.087,0,0,0-1.358.445l-.619,1.032a3.255,3.255,0,0,1-2.058,1.493l-1.168.272a1.085,1.085,0,0,0-.836,1.151l.1,1.2a3.258,3.258,0,0,1-.787,2.422l-.788.907a1.086,1.086,0,0,0,0,1.423l.788.907a3.262,3.262,0,0,1,.787,2.423l-.109,1.194a1.087,1.087,0,0,0,.842,1.157l1.168.272a3.259,3.259,0,0,1,2.064,1.493l.613,1.032a1.087,1.087,0,0,0,1.358.435Zm1.532.527a2.174,2.174,0,0,1,1.694,0l1.108.472a2.172,2.172,0,0,0,2.71-.879l.619-1.032a2.177,2.177,0,0,1,1.374-1l1.168-.271a2.171,2.171,0,0,0,1.678-2.3l-.108-1.2a2.169,2.169,0,0,1,.527-1.618l.787-.907a2.172,2.172,0,0,0,0-2.846l-.787-.907a2.17,2.17,0,0,1-.527-1.613l.108-1.2a2.172,2.172,0,0,0-1.678-2.308l-1.168-.272a2.172,2.172,0,0,1-1.374-1l-.619-1.032a2.172,2.172,0,0,0-2.715-.88l-1.1.473a2.174,2.174,0,0,1-1.694,0l-1.108-.473a2.174,2.174,0,0,0-2.71.88l-.619,1.032a2.172,2.172,0,0,1-1.374,1l-1.168.272a2.171,2.171,0,0,0-1.678,2.3l.108,1.2a2.172,2.172,0,0,1-.526,1.618l-.788.907a2.172,2.172,0,0,0,0,2.846l.788.907a2.169,2.169,0,0,1,.526,1.613l-.108,1.2a2.172,2.172,0,0,0,1.678,2.308l1.168.271a2.177,2.177,0,0,1,1.374,1l.619,1.032a2.171,2.171,0,0,0,2.715.879Zm1.933-17.216a1.854,1.854,0,1,0,.006,0Zm3.259,1.086a1.4,1.4,0,1,0,.007,0Zm-5.974.543a2.764,2.764,0,1,0,.005,0Zm-3.259,0a2.764,2.764,0,1,0,.005,0Zm1.629-2.716a3.434,3.434,0,1,0,.005,0ZM992.84,674.3a.543.543,0,1,1,.543.543A.543.543,0,0,1,992.84,674.3Zm1.629,3.259a.543.543,0,1,1,.543.543.543.543,0,0,1-.543-.543Zm0,3.258a.543.543,0,1,1,.543.544.543.543,0,0,1-.543-.544Zm2.172,3.8a.544.544,0,1,1,.543.543.544.544,0,0,1-.543-.543Zm2.716-1.086a.543.543,0,1,1,.543.543.543.543,0,0,1-.543-.543Zm2.715,2.172a.544.544,0,1,1,.543.543.544.544,0,0,1-.543-.543Zm2.173-3.258a.209.209,0,1,1-.005,0Zm3.258-2.173a.544.544,0,1,1,.543.543.544.544,0,0,1-.543-.543Zm-2.172-1.629a.543.543,0,1,1,.543.543.543.543,0,0,1-.543-.543Zm2.172-1.629a.544.544,0,1,1,.543.543.544.544,0,0,1-.543-.543Zm-2.715-2.173a.543.543,0,1,1,.543.543.543.543,0,0,1-.543-.543ZM991.753,678.1a.544.544,0,1,1,.543.543.544.544,0,0,1-.543-.543Zm8.69,2.715a2.716,2.716,0,1,0-2.715-2.715,2.716,2.716,0,0,0,2.715,2.715Zm3.8-2.715a3.8,3.8,0,1,1-3.8-3.8,3.8,3.8,0,0,1,3.8,3.8Zm46.707-15.75a.543.543,0,0,0,0,1.086h1.086a.543.543,0,0,0,0-1.086Zm10.319,4.888a.543.543,0,0,1,.543-.543h1.086a.543.543,0,0,1,0,1.086h-1.086a.543.543,0,0,1-.542-.541Zm-7.6,2.715a.544.544,0,0,0,0,1.087h1.086a.544.544,0,0,0,0-1.087Zm-13.577.543a.544.544,0,1,0,0,1.087h1.086a.544.544,0,0,0,0-1.087Zm2.715,2.173a.543.543,0,0,0,0,1.086h1.086a.543.543,0,0,0,0-1.086Zm4.888,0a.543.543,0,0,1,.543-.543h1.086a.543.543,0,0,1,0,1.086h-1.086a.543.543,0,0,1-.548-.541Zm8.147.543a.543.543,0,0,1,.543-.543h1.086a.543.543,0,0,1,0,1.086h-1.086a.543.543,0,0,1-.545-.541Zm6.517-1.086a.543.543,0,0,0,0,1.086h1.086a.543.543,0,0,0,0-1.086Zm-5.974-7.6a.543.543,0,0,1,.543-.543h1.086a.543.543,0,0,1,0,1.086h-1.086a.543.543,0,0,1-.548-.545Zm-10.319,0a.544.544,0,0,0,0,1.087h1.086a.544.544,0,0,0,0-1.087Zm3.258,2.716a.544.544,0,0,1,.543-.543h1.087a.543.543,0,0,1,0,1.086h-1.087a.544.544,0,0,1-.547-.545Zm-13.577,8.146c0-.255.005-.51.016-.76a2.716,2.716,0,0,1-.923-4.345,2.167,2.167,0,0,1,1.021-2.813,2.714,2.714,0,0,1,1.833-3.374h.013a1.627,1.627,0,0,1,.793-.57,2.715,2.715,0,0,1,4.215-1.776,16.841,16.841,0,0,1,19.736,0,2.717,2.717,0,0,1,4.215,1.776,1.623,1.623,0,0,1,.8.57,2.715,2.715,0,0,1,1.85,3.365v.013a2.172,2.172,0,0,1,1.015,2.813,2.706,2.706,0,0,1-.923,4.345c.011.25.016.5.016.76v.544h-33.672Zm.451-3.894a16.579,16.579,0,0,0-.337,1.939,1.629,1.629,0,0,1-.332-2.28h0a2.144,2.144,0,0,0,.668.342Zm.809-2.5q-.294.708-.522,1.455a1.087,1.087,0,0,1-.114-2.015A2.723,2.723,0,0,0,1037.007,668.994Zm1.26-2.466c-.294.467-.56.956-.809,1.455a1.628,1.628,0,0,1-.28-2.287,1.583,1.583,0,0,1,.242-.249,1.627,1.627,0,0,0,.847,1.081Zm.619-.923c.19-.272.391-.533.6-.793a.543.543,0,1,0-.6.787Zm2.9-3.134a16.613,16.613,0,0,0-1.575,1.5,1.633,1.633,0,0,0-.6-.418,1.629,1.629,0,0,1,2-1.143c.058.016.115.035.172.057Zm23.169,1.5a17.392,17.392,0,0,0-1.575-1.5,1.63,1.63,0,0,1,2.118.907,1.882,1.882,0,0,1,.06.179,1.649,1.649,0,0,0-.6.418Zm.728.837c.206.26.407.521.6.787a.543.543,0,1,0-.239-1.059.537.537,0,0,0-.364.271Zm2.025,3.171a15.865,15.865,0,0,0-.814-1.455,1.627,1.627,0,0,0,.852-1.081,1.624,1.624,0,0,1-.038,2.536Zm.978,2.461c-.158-.489-.326-.978-.527-1.45a2.723,2.723,0,0,0,.636-.56,1.087,1.087,0,0,1-.109,2.01Zm.619,2.992a17.556,17.556,0,0,0-.337-1.939,2.157,2.157,0,0,0,.668-.342,1.624,1.624,0,0,1-.317,2.275l-.008.006Zm-.972,1.412a15.75,15.75,0,0,0-31.484,0ZM958.26,666.219a1.1,1.1,0,0,1-.184-.608v-6.518h-1.087v6.518a2.178,2.178,0,0,0,3.851,1.379,2.156,2.156,0,0,0,.494-1.379v-6.518h-1.086v6.518a1.081,1.081,0,0,1-1.075,1.086h-.011a1.089,1.089,0,0,1-.9-.478Zm1.45-12.014a2.7,2.7,0,0,0,.6-.065,2.172,2.172,0,0,0,3.361,1.3,7.556,7.556,0,0,1,.929,3.649v13.035a3.258,3.258,0,0,1-3.258,3.258h-1.63v4.888a2.716,2.716,0,1,1-5.432,0v-4.888H952.65a3.259,3.259,0,0,1-3.259-3.258V659.093a7.6,7.6,0,0,1,7.6-7.6,2.715,2.715,0,0,0,2.719,2.712Zm-9.232,8.147v6.517a1.087,1.087,0,0,0,1.987.608,1.1,1.1,0,0,0,.185-.608v-6.517h1.086v6.517a2.161,2.161,0,0,1-2.9,2.048,2.136,2.136,0,0,1-.353-.163v1.374a2.171,2.171,0,0,0,2.172,2.172h8.69a2.172,2.172,0,0,0,2.172-2.172V659.093a6.129,6.129,0,0,0-.391-2.264,3.57,3.57,0,0,1-.695.092,3.259,3.259,0,0,1-2.824-1.629,3.8,3.8,0,0,1-3.514-2.651,6.516,6.516,0,0,0-5.61,6.452Zm4.887,13.034v4.888a1.63,1.63,0,1,0,3.259,0v-4.888Z" transform="translate(-892.905 -558.621)" fill="#d5d5d5" fill-rule="evenodd"/><path d="M909.745,662.352a.543.543,0,0,0,0,1.086h1.086a.543.543,0,1,0,0-1.086Zm10.319,4.888a.543.543,0,0,1,.543-.543h1.086a.543.543,0,1,1,0,1.086h-1.086A.543.543,0,0,1,920.064,667.24Zm-7.6,2.715a.544.544,0,0,0,0,1.087h1.086a.544.544,0,1,0,0-1.087Zm-13.577.543a.544.544,0,0,0,0,1.087h1.086a.544.544,0,0,0,0-1.087Zm2.715,2.173a.543.543,0,1,0,0,1.086h1.086a.543.543,0,0,0,0-1.086Zm4.888,0a.543.543,0,0,1,.543-.543h1.086a.543.543,0,0,1,0,1.086h-1.086a.543.543,0,0,1-.547-.543Zm8.147.543a.543.543,0,0,1,.543-.543h1.086a.543.543,0,1,1,0,1.086H915.18a.543.543,0,0,1-.547-.543Zm6.517-1.086a.543.543,0,0,0,0,1.086h1.086a.543.543,0,1,0,0-1.086Zm-5.974-7.6a.543.543,0,0,1,.543-.543h1.086a.543.543,0,1,1,0,1.086h-1.086a.543.543,0,0,1-.547-.547Zm-10.319,0a.544.544,0,0,0,0,1.087h1.086a.544.544,0,0,0,0-1.087Zm3.258,2.716a.544.544,0,0,1,.544-.543h1.086a.543.543,0,1,1,0,1.086h-1.086a.544.544,0,0,1-.548-.547Zm-13.577,8.146c0-.255,0-.51.016-.76a2.716,2.716,0,0,1-.923-4.345,2.167,2.167,0,0,1,1.021-2.813,2.714,2.714,0,0,1,1.833-3.374h.013a1.627,1.627,0,0,1,.793-.57,2.715,2.715,0,0,1,4.215-1.776,16.841,16.841,0,0,1,19.736,0,2.717,2.717,0,0,1,4.215,1.776,1.622,1.622,0,0,1,.8.57,2.715,2.715,0,0,1,1.85,3.365v.013a2.172,2.172,0,0,1,1.015,2.813,2.706,2.706,0,0,1-.923,4.345c.011.25.016.5.016.76v.544H894.538Zm.451-3.894a16.81,16.81,0,0,0-.337,1.939,1.629,1.629,0,0,1-.332-2.28h0a2.156,2.156,0,0,0,.668.342Zm.809-2.5q-.294.708-.522,1.455a1.087,1.087,0,0,1-.114-2.015,2.718,2.718,0,0,0,.636.56Zm1.26-2.466c-.293.467-.56.956-.809,1.455a1.628,1.628,0,0,1-.28-2.287,1.588,1.588,0,0,1,.242-.249,1.627,1.627,0,0,0,.843,1.074Zm.619-.923c.19-.272.391-.533.6-.793a.543.543,0,1,0-.6.787Zm2.9-3.134a16.6,16.6,0,0,0-1.575,1.5,1.635,1.635,0,0,0-.6-.418,1.63,1.63,0,0,1,2-1.143,1.8,1.8,0,0,1,.172.057Zm23.169,1.5a17.385,17.385,0,0,0-1.575-1.5,1.63,1.63,0,0,1,2.118.907,1.861,1.861,0,0,1,.06.179,1.649,1.649,0,0,0-.6.418Zm.728.837c.206.26.407.521.6.787a.543.543,0,1,0-.6-.787Zm2.025,3.171a15.639,15.639,0,0,0-.814-1.455,1.631,1.631,0,0,0,.853-1.081,1.625,1.625,0,0,1-.039,2.536Zm.978,2.461c-.157-.489-.326-.978-.527-1.45a2.721,2.721,0,0,0,.636-.56,1.086,1.086,0,0,1-.109,2.01Zm.619,2.992a17.584,17.584,0,0,0-.337-1.939,2.165,2.165,0,0,0,.669-.342,1.625,1.625,0,0,1-.318,2.275l-.008.006Zm-.972,1.412a15.75,15.75,0,0,0-31.484,0Z" transform="translate(-892.905 -558.621)" fill="#d5d5d5" fill-rule="evenodd"/></g></svg>