<?xml version="1.0" encoding="utf-8"?>
<!-- Generator: Adobe Illustrator 28.3.0, SVG Export Plug-In . SVG Version: 6.00 Build 0)  -->
<svg version="1.1" id="Layer_4" xmlns="http://www.w3.org/2000/svg" xmlns:xlink="http://www.w3.org/1999/xlink" x="0px" y="0px"
	 viewBox="0 0 432 432" style="enable-background:new 0 0 432 432;" xml:space="preserve">
<style type="text/css">
	.st0{fill:#8B523E;}
	.st1{fill:#F1B76B;}
	.st2{fill:#D59249;}
	.st3{fill:#231F20;}
	.st4{fill:#B47C3C;}
	.st5{fill:#7F4839;}
	.st6{fill:#FFF0E0;}
	.st7{fill:#B6803D;}
	.st8{fill:#925F51;}
	.st9{fill:#E7A556;}
	.st10{fill:#F12525;}
	.st11{fill:#FF4A4A;}
	.st12{fill:#FF6666;}
	.st13{fill:#FFFFFF;}
	.st14{fill:#CD0F0F;}
	.st15{fill:#FF8C8C;}
</style>
<g>
	<g>
		<g>
			<g>
				<path class="st0" d="M372.4,55.7l12.8,12.9c2.5,2.5,2.5,6.6,0,9L314.3,148l-21.4-21.5l71.3-70.9
					C366.4,53.4,370.1,53.4,372.4,55.7L372.4,55.7z"/>
				<path class="st1" d="M94.1,417.1L94.1,417.1c-32.5-11.4-58.1-36.7-69.9-69l-0.8-2.2c-0.4-1.1-0.1-2.4,0.7-3.3l236.9-235.4
					c4.2-4.2,11.1-4.2,15.3,0.1l58,58.3c4.2,4.2,4.2,11.1,0,15.3l-237,235.5C96.5,417.2,95.3,417.5,94.1,417.1L94.1,417.1z"/>
				<path class="st2" d="M330.8,156.8l-43.6-42.5l17.8-1.8c2-0.5,3-0.5,3.9,0.4l21.2,21.4c0.9,0.9,0.9,2.4,0,3.3L330.8,156.8
					L330.8,156.8z"/>
				<g>
					<path class="st1" d="M385.1,33.3L410,58.4c2.4,2.5,2.4,6.4,0,8.9l-7.3,7.3c-2.5,2.4-6.4,2.4-8.9,0l-24.9-25.1
						c-2.4-2.5-2.4-6.4,0-8.9l7.3-7.3C378.7,30.8,382.6,30.8,385.1,33.3z"/>
					<path class="st3" d="M398.2,78.8L398.2,78.8c-2.4,0-4.6-0.9-6.2-2.6l-24.9-25c-1.6-1.7-2.6-3.9-2.5-6.2c0-2.3,0.9-4.5,2.6-6.2
						l7.3-7.3c1.7-1.6,3.9-2.5,6.2-2.5h0c2.3,0,4.5,0.9,6.2,2.6l24.9,25.1c1.6,1.7,2.6,3.9,2.5,6.2c0,2.3-0.9,4.6-2.6,6.2l-7.3,7.3
						C402.7,77.9,400.5,78.8,398.2,78.8z M380.6,34c-1,0-2,0.4-2.7,1.1l-7.3,7.3c-0.7,0.7-1.1,1.7-1.1,2.7c0,1,0.4,2,1.1,2.7
						l24.9,25c0.7,0.7,1.7,1.1,2.7,1.1h0c1,0,2-0.4,2.7-1.1l7.3-7.3c0.7-0.7,1.1-1.7,1.1-2.7c0-1-0.4-2-1.1-2.7l-24.9-25
						C382.6,34.3,381.7,34,380.6,34C380.6,33.9,380.6,33.9,380.6,34z"/>
				</g>
				<path class="st4" d="M97.4,416.4L97.4,416.4c-1,0.9-2.4,1.1-3.7,0.6l0,0c-4.5-1.5-8.8-3.4-13-5.6l251-248.7l3,3.1
					c4.1,4.1,4,10.7,0,14.8L97.4,416.4L97.4,416.4z"/>
			</g>
			<path class="st5" d="M322.1,127.4l60.3-60.7l1.7,1.6c3.4,2.6,2.9,7.3,0.1,10.2l-55.5,55.1L322.1,127.4L322.1,127.4z"/>
		</g>
		<path class="st3" d="M97.6,418.5c-0.2,0-0.4,0-0.6,0c-0.6,0-1.2-0.2-1.7-0.4c-4.6-1.5-9.1-3.5-13.3-5.7l-0.7-0.4
			c-26.5-13.5-46.7-36.3-56.9-64.3l-0.8-2.2c-0.8-2.1-0.2-4.4,1.3-5.9l236.9-235.5c2.5-2.5,5.9-3.9,9.4-3.9h0c3.6,0,6.9,1.4,9.4,3.9
			l7.5,7.4l15-1.8c1.7-0.3,3.1-0.3,4.3-0.2l56-55.7c1.8-1.8,4.2-2.8,6.7-2.8h0c2.5,0,4.9,1,6.7,2.8l11.2,11.3c1.9,1.8,3,4.2,3.1,6.8
			s-0.9,5.1-2.8,6.9l-55.9,55.6c0.2,1.3,0.4,3.1,0.2,5.1l-1.5,15.6l2.8,2.8l0,0l1.8,1.7l3,3.1c2.4,2.4,3.8,5.7,3.8,9.2
			c0,3.5-1.4,6.7-3.8,9.1l-0.3,0.3l-237,235.5C100.5,417.9,99.1,418.5,97.6,418.5L97.6,418.5z M87.3,409.5c3.1,1.5,6.3,2.8,9.6,3.9
			l0.1,0c0.1,0,0.2,0,0.3,0.1h0.2c0.1,0,0.3,0,0.5-0.1l237.3-235.8c1.5-1.5,2.3-3.5,2.4-5.6s-0.8-4.1-2.3-5.6l-3.1-3l-6.3-6.1
			l1.8-18c0.3-2.2-0.4-4.7-0.4-4.7l-2.3-8.7l4.7,4.5l55.1-54.8c0.9-0.9,1.4-2,1.3-3.3c0-1.2-0.5-2.4-1.5-3.2l-0.4-0.4l-11-11.1
			c-0.9-0.9-2-1.3-3.2-1.3h0c-1.2,0-2.3,0.5-3.2,1.3l-58.3,57.9l-1.6-0.8c-0.3-0.1-1.5-0.1-3.2,0.1l-17.5,2.1l-9.2-9.2
			c-1.6-1.6-3.7-2.5-5.9-2.5h0c-2.2,0-4.3,0.9-5.9,2.4L28.3,343.2c-0.2,0.2-0.2,0.4-0.1,0.7L29,346c9.9,27,29.5,49,55.2,61.9
			L87.3,409.5L87.3,409.5L87.3,409.5z"/>
		
			<rect x="305.4" y="105.8" transform="matrix(0.7119 -0.7023 0.7023 0.7119 -6.3185 255.2033)" class="st3" width="5" height="58.9"/>
		<rect x="316.9" y="109.1" transform="matrix(0.7102 -0.704 0.704 0.7102 6.0416 260.4751)" class="st3" width="5" height="27.7"/>
	</g>
	<path class="st6" d="M376.8,53.8c0,0-2.3-6.6,2.7-10.9c4.9-4.2,9.7-1.6,9.9-1.6c0.1,0-4.3-4.2-6.4-6.3c-1.5-1.4-3.8-1.5-5.2,0
		l-7.3,7.2c-1.5,1.5-1.5,3.9,0,5.3L376.8,53.8L376.8,53.8z"/>
	<path class="st7" d="M402,54c0,0,2.2,6.6-2.8,10.9c-4.9,4.2-9.7,1.5-10,1.5c-0.1,0,4.2,4.2,6.3,6.3c1.4,1.4,3.8,1.5,5.2,0.1
		l7.4-7.1c1.5-1.4,1.5-3.8,0-5.3L402,54L402,54z"/>
	<path class="st8" d="M315.5,115.5l58.9-56.8l-1.2-1.2c-1.7-1.7-4.4-1.7-6,0l-55.3,54.6L315.5,115.5L315.5,115.5z"/>
	<g>
		<polygon class="st9" points="278.4,109.2 31.1,351.4 33.8,356.9 283.1,113.9 		"/>
		<polygon class="st9" points="290.5,121.3 39.1,366.6 42.4,371.6 295.2,126.1 		"/>
		<polygon class="st9" points="302.8,134.1 49.6,380.7 53.8,385.4 307.5,138.9 		"/>
		<polygon class="st9" points="317.5,149.2 65,395.6 69.9,399.4 322.1,153.9 		"/>
	</g>
</g>
<g>
	<g>
		<g>
			<g>
				<g>
					<g>
						<circle class="st10" cx="67.1" cy="278.4" r="52.2"/>
						<path class="st3" d="M67.1,333.1c-6.6,0-13.2-1.2-19.6-3.7c-13.6-5.2-24.4-15.5-30.4-28.8s-6.3-28.2-1.1-41.8
							c5.2-13.6,15.5-24.4,28.8-30.4c13.3-5.9,28.2-6.3,41.8-1.1s24.4,15.5,30.3,28.8s6.3,28.2,1.1,41.8
							c-5.2,13.6-15.5,24.4-28.8,30.4C82.2,331.5,74.7,333.1,67.1,333.1z M67.1,228.7c-6.9,0-13.7,1.4-20.2,4.3
							c-12.1,5.4-21.4,15.2-26.2,27.6c-4.8,12.4-4.4,25.9,1,38c5.4,12.1,15.2,21.4,27.6,26.2c12.4,4.8,25.9,4.4,38-1
							s21.4-15.2,26.2-27.6s4.4-25.9-1-38l0,0c-5.4-12.1-15.2-21.4-27.6-26.2C79.1,229.8,73.1,228.7,67.1,228.7L67.1,228.7z"/>
					</g>
					<path class="st11" d="M19.8,292.8c0,0,26.1,7,50.9-15.2c15.4-13.8,17.1-33.5,12.9-45.8c0,0-25.2-10.3-49.4,9.5
						S18.9,291.3,19.8,292.8z"/>
					<path class="st12" d="M58.8,229.6c1.3,4-0.9,14.7-10.5,24.1c-11.1,10.7-25.1,13.8-28.3,11.7c0,0,2.6-13.9,14.1-23.5
						C46.5,231.3,58.8,229.6,58.8,229.6L58.8,229.6z"/>
				</g>
				<path class="st13" d="M28.1,297.4c-5.4,0-8.8-0.6-9-0.6c-1.1-0.2-1.8-1.2-1.6-2.3c0.2-1.1,1.2-1.8,2.3-1.6c0,0,3.2,0.6,8.2,0.6
					h0.7c0,0,0,0,0,0c1.1,0,2,0.9,2,2s-0.9,2-2,2L28.1,297.4L28.1,297.4z M38.7,296.6c-1,0-1.8-0.7-2-1.7c-0.2-1.1,0.6-2.1,1.7-2.3
					c3.2-0.5,6.4-1.2,9.5-2.1c1-0.3,2.2,0.3,2.5,1.3c0.3,1.1-0.3,2.2-1.3,2.5c-3.2,1-6.6,1.8-10,2.3
					C38.9,296.6,38.8,296.6,38.7,296.6L38.7,296.6z M57.8,290.7c-0.7,0-1.5-0.4-1.8-1.1c-0.5-1-0.1-2.2,0.9-2.7
					c2.9-1.4,5.7-3.1,8.2-5c0.9-0.6,2.2-0.5,2.8,0.4c0.7,0.9,0.4,2.1-0.4,2.8c-2.8,2-5.7,3.8-8.8,5.4
					C58.3,290.7,58,290.8,57.8,290.7L57.8,290.7z M73.8,279c-0.5,0-1-0.2-1.4-0.5c-0.8-0.8-0.8-2-0.1-2.8c2.2-2.3,4.2-4.9,5.9-7.5
					c0.6-0.9,1.8-1.2,2.8-0.6s1.2,1.8,0.6,2.8c-1.8,2.9-4,5.6-6.4,8.2C74.9,278.8,74.4,279,73.8,279L73.8,279z M84.4,262.2
					c-0.2,0-0.5,0-0.7-0.1c-1-0.4-1.6-1.5-1.2-2.6c1.1-3,1.9-6.1,2.4-9.3c0.2-1.1,1.2-1.8,2.3-1.7s1.8,1.2,1.7,2.3
					c-0.5,3.5-1.4,6.9-2.6,10.1C85.9,261.7,85.2,262.2,84.4,262.2L84.4,262.2z M87.4,242.6c-1.1,0-2-0.9-2-1.9
					c-0.2-5.7-1.2-9.4-1.2-9.4c-0.3-1.1,0.3-2.2,1.4-2.5c1.1-0.3,2.2,0.3,2.5,1.4c0.1,0.2,1.2,4.2,1.3,10.4
					C89.4,241.6,88.6,242.5,87.4,242.6C87.4,242.5,87.4,242.5,87.4,242.6L87.4,242.6z"/>
				<path class="st13" d="M34.2,314.1c-1.1,0-2-0.8-2-1.9c0-1.1,0.8-2,1.9-2.1c3.2-0.1,6.4-0.5,9.7-1c1.1-0.2,2.1,0.6,2.3,1.6
					c0.2,1.1-0.5,2.1-1.6,2.3C41.1,313.6,37.7,313.9,34.2,314.1C34.3,314.1,34.3,314.1,34.2,314.1L34.2,314.1z M53.9,310.8
					c-0.9,0-1.7-0.6-1.9-1.5c-0.3-1.1,0.3-2.2,1.4-2.5c3.1-0.9,6.2-2,9.2-3.2c1-0.4,2.2,0.1,2.6,1.1c0.4,1-0.1,2.2-1.1,2.6
					c-3.1,1.3-6.4,2.4-9.7,3.4C54.3,310.8,54.1,310.8,53.9,310.8L53.9,310.8z M72.3,303.1c-0.7,0-1.4-0.4-1.8-1
					c-0.5-1-0.2-2.2,0.8-2.7c2.8-1.6,5.6-3.4,8.2-5.3c0.9-0.6,2.1-0.5,2.8,0.4c0.7,0.9,0.5,2.1-0.4,2.8c-2.8,2-5.6,3.9-8.6,5.5
					C73,303.1,72.7,303.2,72.3,303.1L72.3,303.1z M88.4,291.3c-0.5,0-1-0.2-1.4-0.6c-0.8-0.8-0.8-2,0-2.8c2.3-2.3,4.4-4.8,6.3-7.3
					c0.6-0.9,1.9-1.1,2.8-0.5c0.9,0.6,1.1,1.9,0.5,2.8c-2,2.8-4.2,5.4-6.7,7.9C89.4,291.1,88.9,291.3,88.4,291.3L88.4,291.3z
					 M99.9,275.1c-0.3,0-0.6-0.1-0.8-0.2c-1-0.5-1.4-1.6-1-2.6c1.3-2.9,2.4-6,3.1-9.1c0.3-1.1,1.3-1.7,2.4-1.5
					c1.1,0.2,1.7,1.3,1.5,2.4c-0.8,3.4-1.9,6.7-3.4,9.8C101.4,274.6,100.6,275.1,99.9,275.1L99.9,275.1z M104.5,255.7
					C104.5,255.7,104.4,255.7,104.5,255.7c-1.2-0.1-2-1-2-2.1c0-0.7,0-1.4,0-2c0-4.5-0.6-7.4-0.7-7.4c-0.2-1.1,0.4-2.1,1.5-2.4
					c1.1-0.2,2.2,0.4,2.4,1.5c0,0.1,0.8,3.3,0.8,8.3c0,0.7,0,1.4,0,2.2C106.4,254.9,105.5,255.7,104.5,255.7L104.5,255.7z"/>
			</g>
			<path class="st3" d="M66.9,332.9c-21,0-41-12.1-50-32.4c-5.9-13.3-6.3-28.2-1.1-41.8c5.2-13.6,15.5-24.4,28.8-30.4
				c13.3-5.9,28.2-6.3,41.8-1.1s24.4,15.5,30.3,28.8l0,0c12.3,27.5-0.2,59.9-27.7,72.2C81.9,331.4,74.3,332.9,66.9,332.9L66.9,332.9
				z M66.8,228.5c-6.9,0-13.7,1.4-20.2,4.3c-12.1,5.4-21.4,15.2-26.2,27.6s-4.4,25.9,1,38c11.1,25,40.6,36.3,65.6,25.2
				c25-11.1,36.3-40.6,25.2-65.6l0,0c-5.4-12.1-15.2-21.4-27.6-26.2C78.9,229.6,72.8,228.5,66.8,228.5L66.8,228.5z"/>
		</g>
		<path class="st14" d="M92.4,308.8c20.7-17.6,22.6-41.4,22.6-41.4s8.2,30.6-17.6,49.8c-27.4,20.3-54.5,4.4-54.5,4.4
			S71.9,326.3,92.4,308.8z"/>
	</g>
	<ellipse transform="matrix(0.305 -0.9523 0.9523 0.305 -231.0798 215.2808)" class="st15" cx="32" cy="266" rx="13.3" ry="9.1"/>
</g>
</svg>
