<svg width="25" height="23" viewBox="0 0 25 23" fill="none" xmlns="http://www.w3.org/2000/svg">
<path d="M4.60919 3.58917C6.0094 2.18825 7.89058 1.37317 9.87026 1.30965C11.8499 1.24612 13.7795 1.93893 15.2666 3.24721C16.7538 4.55549 17.6868 6.38102 17.8761 8.35266C18.0654 10.3243 17.4967 12.294 16.2857 13.8613L22.9499 20.5255L21.6537 21.8217L15.0024 15.1703C13.4483 16.4157 11.4765 17.0188 9.49168 16.8558C7.50691 16.6929 5.65983 15.7762 4.32973 14.2941C2.99963 12.8119 2.28745 10.8768 2.33942 8.88601C2.39139 6.89523 3.20357 4.99989 4.60919 3.58917ZM14.3314 4.88533C13.78 4.3237 13.1227 3.87688 12.3977 3.57068C11.6726 3.26448 10.8941 3.10496 10.107 3.10135C9.31996 3.09773 8.53998 3.25008 7.81214 3.54961C7.08429 3.84914 6.423 4.2899 5.86646 4.84644C5.30992 5.40298 4.86916 6.06427 4.56963 6.79211C4.27011 7.51996 4.11775 8.29993 4.12137 9.08699C4.12499 9.87405 4.2845 10.6526 4.5907 11.3777C4.89691 12.1027 5.34373 12.7599 5.90536 13.3113C7.02621 14.4118 8.53627 15.0251 10.107 15.0179C11.6778 15.0107 13.1821 14.3835 14.2928 13.2728C15.4035 12.1621 16.0307 10.6577 16.0379 9.08699C16.0451 7.51625 15.4318 6.00619 14.3314 4.88533Z" fill="black"/>
</svg>
