<?xml version="1.0" encoding="utf-8"?>
<!-- Generator: Adobe Illustrator 25.3.1, SVG Export Plug-In . SVG Version: 6.00 Build 0)  -->
<svg version="1.1" id="Layer_1" xmlns="http://www.w3.org/2000/svg" xmlns:xlink="http://www.w3.org/1999/xlink" x="0px" y="0px"
	 viewBox="0 0 229 58" style="enable-background:new 0 0 229 58;" xml:space="preserve">
<style type="text/css">
	.st0{clip-path:url(#SVGID_2_);}
	.st1{fill:url(#SVGID_3_);}
	.st2{clip-path:url(#SVGID_5_);}
	.st3{fill:url(#SVGID_6_);}
	.st4{clip-path:url(#SVGID_8_);}
	.st5{fill:url(#SVGID_9_);}
	.st6{fill:#3C3C3B;}
</style>
<g id="Layer_2_1_">
	<g id="Layer_1-2">
		<g>
			<g>
				<g>
					<defs>
						<path id="SVGID_1_" d="M23.3,1L1.2,13.7c-0.9,0.5-1.4,1.4-1.4,2.3v25.6c0,1,0.5,1.8,1.4,2.3l22.1,12.8c0.9,0.5,1.8,0.5,2.7,0
							L48.1,44c0.9-0.5,1.4-1.4,1.4-2.3V16.1c0-1-0.5-1.8-1.4-2.3L26,1C25.1,0.5,24.2,0.5,23.3,1"/>
					</defs>
					<clipPath id="SVGID_2_">
						<use xlink:href="#SVGID_1_"  style="overflow:visible;"/>
					</clipPath>
					<g class="st0">
						
							<linearGradient id="SVGID_3_" gradientUnits="userSpaceOnUse" x1="-2073.99" y1="407.9115" x2="-2073.3591" y2="407.9115" gradientTransform="matrix(-50.753 103.536 103.536 50.753 -147454.0156 194026.2031)">
							<stop  offset="0.3" style="stop-color:#3E863D"/>
							<stop  offset="0.5" style="stop-color:#55934F"/>
							<stop  offset="0.8" style="stop-color:#5AAD45"/>
						</linearGradient>
						<path class="st1" d="M71.9,11.6L9.5-19l-32,65.3l62.4,30.6L71.9,11.6z"/>
					</g>
				</g>
			</g>
			<g>
				<g>
					<defs>
						<path id="SVGID_4_" d="M0.4,43.3c0.2,0.3,0.5,0.5,0.8,0.7l19,11l3.2,1.8c0.5,0.3,1,0.4,1.5,0.4c0.2,0,0.4,0,0.5-0.1l23.4-42.8
							c-0.2-0.2-0.4-0.4-0.6-0.5L33.7,5.4L26,0.9c-0.2-0.1-0.5-0.2-0.7-0.3L0.4,43.3z"/>
					</defs>
					<clipPath id="SVGID_5_">
						<use xlink:href="#SVGID_4_"  style="overflow:visible;"/>
					</clipPath>
					<g class="st2">
						
							<linearGradient id="SVGID_6_" gradientUnits="userSpaceOnUse" x1="-2078.9497" y1="372.0007" x2="-2078.5403" y2="372.0007" gradientTransform="matrix(142.407 -105.222 -105.222 -142.407 335195.0312 -165725.2812)">
							<stop  offset="0.57" style="stop-color:#3E863D"/>
							<stop  offset="0.72" style="stop-color:#619857"/>
							<stop  offset="1" style="stop-color:#76AC64"/>
						</linearGradient>
						<path class="st3" d="M-26.6,20.6l44.1,59.6l58.3-43.1l-44-59.5L-26.6,20.6z"/>
					</g>
				</g>
			</g>
			<g>
				<g>
					<defs>
						<path id="SVGID_7_" d="M24.4,0.5c-0.4,0-0.8,0.2-1.1,0.4l-22,12.8L25.1,57c0.3,0,0.7-0.2,1-0.3l22.1-12.8
							c0.7-0.4,1.2-1.1,1.3-1.8L25.1,0.5c-0.2-0.1-0.4-0.1-0.5-0.1C24.6,0.5,24.5,0.5,24.4,0.5"/>
					</defs>
					<clipPath id="SVGID_8_">
						<use xlink:href="#SVGID_7_"  style="overflow:visible;"/>
					</clipPath>
					<g class="st4">
						
							<linearGradient id="SVGID_9_" gradientUnits="userSpaceOnUse" x1="-2066.5195" y1="372.5073" x2="-2066.1484" y2="372.5073" gradientTransform="matrix(129.889 0 0 -129.889 268419.4375 48413.3125)">
							<stop  offset="0.16" style="stop-color:#6BBF47"/>
							<stop  offset="0.38" style="stop-color:#79B461"/>
							<stop  offset="0.47" style="stop-color:#75AC64"/>
							<stop  offset="0.7" style="stop-color:#659E5A"/>
							<stop  offset="0.9" style="stop-color:#3E863D"/>
						</linearGradient>
						<path class="st5" d="M1.3,0.5V57h48.2V0.5H1.3z"/>
					</g>
				</g>
			</g>
		</g>
		<g>
			<g>
				<g>
					<path class="st6" d="M65.5,27c-1.2-1.1-1.8-2.6-1.9-4.6c0-0.4,0-1.1,0-2c0-1,0-1.6,0-2.1c0.1-2,0.7-3.5,1.9-4.6
						c1.2-1.1,2.8-1.6,4.9-1.6c1.4,0,2.6,0.2,3.6,0.7c1,0.5,1.8,1.1,2.4,1.9c0.6,0.8,0.9,1.7,0.9,2.7v0c0,0.1,0,0.2-0.1,0.3
						c-0.1,0.1-0.2,0.1-0.3,0.1h-2.2c-0.2,0-0.3,0-0.4-0.1c-0.1-0.1-0.2-0.2-0.2-0.4c-0.2-1-0.6-1.6-1.2-2c-0.6-0.4-1.3-0.6-2.3-0.6
						c-2.2,0-3.3,1.2-3.4,3.7c0,0.4,0,1.1,0,1.9c0,0.9,0,1.5,0,2c0.1,2.5,1.2,3.7,3.4,3.7c0.9,0,1.7-0.2,2.2-0.6
						c0.6-0.4,1-1.1,1.2-2c0.1-0.2,0.1-0.4,0.2-0.4c0.1-0.1,0.2-0.1,0.4-0.1h2.2c0.1,0,0.3,0,0.4,0.1c0.1,0.1,0.1,0.2,0.1,0.3
						c0,1-0.3,1.9-0.9,2.7c-0.6,0.8-1.3,1.5-2.4,1.9c-1,0.5-2.2,0.7-3.6,0.7C68.3,28.6,66.7,28.1,65.5,27z"/>
					<path class="st6" d="M81.3,27c-1.2-1.1-1.8-2.6-1.8-4.7c0-0.4,0-1.1,0-2c0-0.9,0-1.5,0-2c0.1-2,0.7-3.6,1.9-4.7
						c1.2-1.1,2.8-1.6,4.9-1.6c2,0,3.6,0.5,4.8,1.6c1.2,1.1,1.8,2.7,1.9,4.7c0,0.9,0,1.5,0,2c0,0.4,0,1.1,0,2
						c-0.1,2.1-0.7,3.7-1.9,4.7c-1.2,1.1-2.8,1.6-4.9,1.6C84.1,28.6,82.4,28.1,81.3,27z M88.6,25c0.6-0.6,0.9-1.6,1-2.8
						c0-0.9,0-1.5,0-1.9c0-0.4,0-1,0-1.9c0-1.3-0.4-2.2-1-2.8s-1.4-0.9-2.4-0.9c-1,0-1.8,0.3-2.4,0.9s-0.9,1.6-1,2.8
						c0,0.4,0,1.1,0,1.9c0,0.8,0,1.4,0,1.9c0,1.3,0.3,2.2,1,2.8c0.6,0.6,1.4,0.9,2.4,0.9S88,25.7,88.6,25z"/>
					<path class="st6" d="M97.3,27c-1.2-1.1-1.8-2.6-1.8-4.7c0-0.4,0-1.1,0-2c0-0.9,0-1.5,0-2c0.1-2,0.7-3.6,1.9-4.7
						c1.2-1.1,2.8-1.6,4.9-1.6c2,0,3.6,0.5,4.8,1.6c1.2,1.1,1.8,2.7,1.9,4.7c0,0.9,0,1.5,0,2c0,0.4,0,1.1,0,2
						c-0.1,2.1-0.7,3.7-1.9,4.7c-1.2,1.1-2.8,1.6-4.9,1.6C100.1,28.6,98.4,28.1,97.3,27z M104.6,25c0.6-0.6,0.9-1.6,1-2.8
						c0-0.9,0-1.5,0-1.9c0-0.4,0-1,0-1.9c0-1.3-0.4-2.2-1-2.8s-1.4-0.9-2.4-0.9c-1,0-1.8,0.3-2.4,0.9s-0.9,1.6-1,2.8
						c0,0.4,0,1.1,0,1.9c0,0.8,0,1.4,0,1.9c0,1.3,0.3,2.2,1,2.8c0.6,0.6,1.4,0.9,2.4,0.9S104,25.7,104.6,25z"/>
					<path class="st6" d="M112.1,28.2c-0.1-0.1-0.2-0.2-0.2-0.4v-15c0-0.2,0-0.3,0.1-0.4c0.1-0.1,0.2-0.2,0.4-0.2h2.1
						c0.2,0,0.3,0.1,0.4,0.2c0.1,0.1,0.2,0.2,0.2,0.4v5.4l5.1-5.5c0.2-0.3,0.5-0.4,0.9-0.4h2.3c0.1,0,0.2,0,0.3,0.1
						c0.1,0.1,0.1,0.2,0.1,0.3c0,0.1,0,0.2-0.1,0.3l-6.3,6.9l6.7,7.6c0.1,0.1,0.1,0.2,0.1,0.3c0,0.1,0,0.3-0.1,0.3
						c-0.1,0.1-0.2,0.1-0.3,0.1h-2.4c-0.3,0-0.6-0.1-0.7-0.2c-0.1-0.1-0.2-0.2-0.2-0.2l-5.5-6.1v5.9c0,0.2-0.1,0.3-0.2,0.4
						c-0.1,0.1-0.2,0.2-0.4,0.2h-2.1C112.3,28.4,112.2,28.3,112.1,28.2z"/>
					<path class="st6" d="M126.7,28.2c-0.1-0.1-0.2-0.2-0.2-0.4v-15c0-0.2,0.1-0.3,0.2-0.4c0.1-0.1,0.2-0.1,0.4-0.1h2.2
						c0.2,0,0.3,0.1,0.4,0.1c0.1,0.1,0.1,0.2,0.1,0.4v15c0,0.2,0,0.3-0.1,0.4c-0.1,0.1-0.2,0.2-0.4,0.2H127
						C126.9,28.4,126.8,28.3,126.7,28.2z"/>
					<path class="st6" d="M133.6,28.2c-0.1-0.1-0.2-0.2-0.2-0.4v-15c0-0.2,0-0.3,0.1-0.4c0.1-0.1,0.2-0.2,0.4-0.2h1.8
						c0.3,0,0.5,0.1,0.7,0.4l6.6,10.2v-10c0-0.2,0-0.3,0.1-0.4c0.1-0.1,0.2-0.2,0.4-0.2h2c0.2,0,0.3,0.1,0.4,0.2
						c0.1,0.1,0.2,0.2,0.2,0.4v14.9c0,0.2-0.1,0.3-0.2,0.4c-0.1,0.1-0.2,0.2-0.4,0.2h-1.8c-0.3,0-0.5-0.1-0.7-0.4l-6.6-10v9.8
						c0,0.2,0,0.3-0.1,0.4c-0.1,0.1-0.2,0.2-0.4,0.2h-2C133.8,28.4,133.7,28.3,133.6,28.2z"/>
					<path class="st6" d="M151,27c-1.2-1.1-1.8-2.6-1.9-4.6c0-0.4,0-1.2,0-2.1c0-1,0-1.7,0-2.1c0.1-1.9,0.7-3.4,1.9-4.5
						c1.2-1.1,2.8-1.6,4.9-1.6c1.4,0,2.6,0.2,3.6,0.7c1,0.5,1.8,1.1,2.3,1.8c0.5,0.7,0.8,1.4,0.8,2.1c0,0.1,0,0.3-0.1,0.3
						c-0.1,0.1-0.2,0.1-0.4,0.1h-2.4c-0.2,0-0.3,0-0.3-0.1c-0.1-0.1-0.1-0.2-0.2-0.3c-0.2-0.6-0.6-1-1.1-1.4
						c-0.5-0.4-1.3-0.6-2.2-0.6c-1.1,0-1.9,0.3-2.5,0.9c-0.6,0.6-0.9,1.5-1,2.7c0,0.4,0,1.1,0,2c0,0.9,0,1.6,0,2
						c0,1.2,0.4,2.2,1,2.7c0.6,0.6,1.5,0.9,2.5,0.9c1.1,0,2-0.3,2.6-0.9c0.7-0.6,1-1.5,1-2.6v-0.7h-2.8c-0.2,0-0.3-0.1-0.4-0.2
						c-0.1-0.1-0.2-0.2-0.2-0.4v-1.3c0-0.2,0.1-0.3,0.2-0.4c0.1-0.1,0.2-0.2,0.4-0.2h5.5c0.2,0,0.3,0.1,0.4,0.2
						c0.1,0.1,0.2,0.2,0.2,0.4v2.4c0,1.3-0.3,2.4-0.9,3.3c-0.6,0.9-1.4,1.7-2.4,2.2c-1,0.5-2.3,0.8-3.7,0.8
						C153.8,28.6,152.2,28.1,151,27z"/>
					<path class="st6" d="M171.2,28.2c-0.1-0.1-0.2-0.2-0.2-0.4v-15c0-0.2,0-0.3,0.1-0.4c0.1-0.1,0.2-0.2,0.4-0.2h6.7
						c1.8,0,3.1,0.4,4,1.2c0.9,0.8,1.3,1.9,1.3,3.2c0,0.8-0.2,1.5-0.6,2c-0.4,0.6-0.8,1-1.4,1.2c0.6,0.3,1.2,0.8,1.6,1.4
						c0.4,0.7,0.7,1.4,0.7,2.3c0,1.4-0.5,2.6-1.4,3.5c-1,0.9-2.3,1.3-4,1.3h-6.9C171.4,28.4,171.3,28.3,171.2,28.2z M177.8,18.9
						c0.8,0,1.4-0.2,1.8-0.6c0.4-0.4,0.6-0.9,0.6-1.5c0-0.6-0.2-1.1-0.6-1.5s-1-0.5-1.8-0.5h-3.6v4.1H177.8z M178.1,25.9
						c0.8,0,1.4-0.2,1.9-0.7c0.4-0.4,0.7-1,0.7-1.7c0-0.7-0.2-1.2-0.7-1.7s-1.1-0.7-1.9-0.7h-3.8v4.6H178.1z"/>
					<path class="st6" d="M187,28.2c-0.1-0.1-0.2-0.2-0.2-0.4v-15c0-0.2,0.1-0.3,0.2-0.4c0.1-0.1,0.2-0.1,0.4-0.1h2.2
						c0.2,0,0.3,0.1,0.4,0.1c0.1,0.1,0.1,0.2,0.1,0.4v12.8h7.3c0.2,0,0.3,0.1,0.4,0.2c0.1,0.1,0.2,0.2,0.2,0.4v1.7
						c0,0.2-0.1,0.3-0.2,0.4c-0.1,0.1-0.2,0.2-0.4,0.2h-10C187.2,28.4,187.1,28.3,187,28.2z"/>
					<path class="st6" d="M201.3,27c-1.2-1.1-1.8-2.6-1.8-4.7c0-0.4,0-1.1,0-2c0-0.9,0-1.5,0-2c0.1-2,0.7-3.6,1.9-4.7
						c1.2-1.1,2.8-1.6,4.9-1.6c2,0,3.6,0.5,4.8,1.6c1.2,1.1,1.8,2.7,1.9,4.7c0,0.9,0,1.5,0,2c0,0.4,0,1.1,0,2
						c-0.1,2.1-0.7,3.7-1.9,4.7s-2.8,1.6-4.9,1.6C204.1,28.6,202.5,28.1,201.3,27z M208.6,25c0.6-0.6,0.9-1.6,1-2.8
						c0-0.9,0-1.5,0-1.9c0-0.4,0-1,0-1.9c0-1.3-0.4-2.2-1-2.8s-1.4-0.9-2.4-0.9c-1,0-1.8,0.3-2.4,0.9c-0.6,0.6-0.9,1.6-1,2.8
						c0,0.4,0,1.1,0,1.9c0,0.8,0,1.4,0,1.9c0,1.3,0.3,2.2,1,2.8c0.6,0.6,1.4,0.9,2.4,0.9S208,25.7,208.6,25z"/>
					<path class="st6" d="M217.3,27c-1.2-1.1-1.8-2.6-1.9-4.6c0-0.4,0-1.2,0-2.1c0-1,0-1.7,0-2.1c0.1-1.9,0.7-3.4,1.9-4.5
						c1.2-1.1,2.8-1.6,4.9-1.6c1.4,0,2.6,0.2,3.6,0.7c1,0.5,1.8,1.1,2.3,1.8c0.5,0.7,0.8,1.4,0.8,2.1c0,0.1,0,0.3-0.1,0.3
						c-0.1,0.1-0.2,0.1-0.4,0.1h-2.4c-0.2,0-0.3,0-0.3-0.1c-0.1-0.1-0.1-0.2-0.2-0.3c-0.2-0.6-0.6-1-1.1-1.4
						c-0.5-0.4-1.3-0.6-2.2-0.6c-1.1,0-1.9,0.3-2.5,0.9c-0.6,0.6-0.9,1.5-1,2.7c0,0.4,0,1.1,0,2c0,0.9,0,1.6,0,2
						c0,1.2,0.4,2.2,1,2.7c0.6,0.6,1.5,0.9,2.5,0.9c1.1,0,2-0.3,2.6-0.9c0.7-0.6,1-1.5,1-2.6v-0.7h-2.8c-0.2,0-0.3-0.1-0.4-0.2
						c-0.1-0.1-0.2-0.2-0.2-0.4v-1.3c0-0.2,0.1-0.3,0.2-0.4c0.1-0.1,0.2-0.2,0.4-0.2h5.5c0.2,0,0.3,0.1,0.4,0.2
						c0.1,0.1,0.2,0.2,0.2,0.4v2.4c0,1.3-0.3,2.4-0.9,3.3c-0.6,0.9-1.4,1.7-2.4,2.2c-1,0.5-2.3,0.8-3.7,0.8
						C220.1,28.6,218.5,28.1,217.3,27z"/>
				</g>
			</g>
			<g>
				<g>
					<path class="st6" d="M64.9,45.3c-0.1-0.1-0.1-0.1-0.1-0.2v-7.8c0-0.1,0-0.2,0.1-0.2S65,37,65.1,37h0.6c0.1,0,0.2,0.1,0.3,0.2
						l2.5,4.9l2.6-4.9c0.1-0.1,0.2-0.2,0.3-0.2h0.6c0.1,0,0.2,0,0.2,0.1s0.1,0.1,0.1,0.2v7.8c0,0.1,0,0.1-0.1,0.2
						c-0.1,0.1-0.1,0.1-0.2,0.1h-0.5c-0.1,0-0.1,0-0.2-0.1s-0.1-0.1-0.1-0.2v-5.9l-2,3.9c-0.1,0.2-0.2,0.2-0.4,0.2h-0.4
						c-0.2,0-0.3-0.1-0.4-0.2l-2-3.9v5.9c0,0.1,0,0.1-0.1,0.2c-0.1,0.1-0.1,0.1-0.2,0.1h-0.5C65,45.3,64.9,45.3,64.9,45.3z"/>
					<path class="st6" d="M74.7,45.2c-0.3-0.2-0.6-0.4-0.8-0.6c-0.2-0.3-0.3-0.6-0.3-0.9c0-0.5,0.2-1,0.6-1.3s1-0.6,1.7-0.7l1.8-0.2
						v-0.3c0-0.8-0.5-1.2-1.4-1.2c-0.4,0-0.7,0.1-0.9,0.2c-0.2,0.1-0.4,0.3-0.5,0.5c0,0.1-0.1,0.1-0.1,0.2c0,0-0.1,0-0.1,0h-0.5
						c-0.1,0-0.1,0-0.2-0.1c-0.1-0.1-0.1-0.1-0.1-0.2c0-0.2,0.1-0.4,0.3-0.6c0.2-0.2,0.4-0.5,0.8-0.6c0.4-0.2,0.8-0.3,1.3-0.3
						c0.9,0,1.5,0.2,1.9,0.6c0.4,0.4,0.6,0.9,0.6,1.5v3.9c0,0.1,0,0.1-0.1,0.2c-0.1,0.1-0.1,0.1-0.2,0.1h-0.5c-0.1,0-0.1,0-0.2-0.1
						c0-0.1-0.1-0.1-0.1-0.2v-0.5c-0.2,0.3-0.4,0.5-0.8,0.7c-0.3,0.2-0.8,0.3-1.3,0.3C75.4,45.5,75,45.4,74.7,45.2z M77.3,44.1
						c0.3-0.3,0.5-0.8,0.5-1.5v-0.3l-1.4,0.2c-0.6,0.1-1,0.2-1.3,0.4c-0.3,0.2-0.4,0.4-0.4,0.7c0,0.3,0.1,0.6,0.4,0.7
						c0.3,0.2,0.6,0.3,0.9,0.3C76.6,44.6,77,44.4,77.3,44.1z"/>
					<path class="st6" d="M81,44.7c-0.4-0.5-0.6-1.2-0.7-2l0-0.4l0-0.4c0-0.8,0.3-1.5,0.7-2c0.4-0.5,1-0.8,1.9-0.8s1.5,0.3,1.9,0.9
						v-2.7c0-0.1,0-0.1,0.1-0.2c0.1-0.1,0.1-0.1,0.2-0.1h0.5c0.1,0,0.1,0,0.2,0.1c0.1,0.1,0.1,0.1,0.1,0.2v7.9c0,0.1,0,0.1-0.1,0.2
						c-0.1,0.1-0.1,0.1-0.2,0.1h-0.5c-0.1,0-0.1,0-0.2-0.1c0-0.1-0.1-0.1-0.1-0.2v-0.5c-0.5,0.6-1.1,0.9-2,0.9
						C82,45.5,81.4,45.2,81,44.7z M84.3,44c0.3-0.4,0.4-0.8,0.5-1.3c0-0.1,0-0.2,0-0.5c0-0.2,0-0.4,0-0.5c0-0.5-0.2-0.9-0.5-1.3
						S83.6,40,83.1,40c-0.6,0-1,0.2-1.2,0.5s-0.4,0.8-0.4,1.4l0,0.3c0,1.5,0.6,2.3,1.7,2.3C83.7,44.5,84.1,44.4,84.3,44z"/>
					<path class="st6" d="M88.2,44.7c-0.5-0.5-0.7-1.2-0.8-2.1l0-0.4l0-0.4c0-0.9,0.3-1.5,0.8-2c0.5-0.5,1.1-0.8,1.9-0.8
						c0.9,0,1.5,0.3,2,0.8c0.5,0.6,0.7,1.3,0.7,2.3v0.2c0,0.1,0,0.1-0.1,0.2c-0.1,0.1-0.1,0.1-0.2,0.1h-4.1v0.1c0,0.5,0.2,1,0.5,1.3
						s0.7,0.5,1.2,0.5c0.4,0,0.7-0.1,0.9-0.2c0.2-0.1,0.4-0.3,0.5-0.5c0.1-0.1,0.1-0.2,0.2-0.2s0.1,0,0.2,0h0.5c0.1,0,0.1,0,0.2,0.1
						c0.1,0,0.1,0.1,0.1,0.2c0,0.2-0.1,0.4-0.3,0.6c-0.2,0.2-0.5,0.5-0.9,0.6c-0.4,0.2-0.8,0.3-1.3,0.3
						C89.3,45.5,88.7,45.2,88.2,44.7z M91.8,41.8L91.8,41.8c0-0.6-0.2-1-0.5-1.4c-0.3-0.3-0.7-0.5-1.2-0.5c-0.5,0-0.9,0.2-1.2,0.5
						s-0.4,0.8-0.4,1.4v0H91.8z"/>
					<path class="st6" d="M98.4,45.3c-0.1,0-0.1-0.1-0.1-0.2l-1.7-5.5l0-0.1c0-0.1,0-0.1,0.1-0.2c0,0,0.1-0.1,0.2-0.1h0.5
						c0.1,0,0.1,0,0.2,0.1c0.1,0,0.1,0.1,0.1,0.1l1.3,4.5l1.4-4.5c0-0.1,0.1-0.1,0.1-0.2c0.1-0.1,0.1-0.1,0.2-0.1h0.4
						c0.1,0,0.2,0,0.2,0.1c0.1,0.1,0.1,0.1,0.1,0.2l1.4,4.5l1.3-4.5c0,0,0-0.1,0.1-0.1c0.1,0,0.1-0.1,0.2-0.1h0.5
						c0.1,0,0.1,0,0.2,0.1c0,0,0.1,0.1,0.1,0.2l0,0.1l-1.7,5.5c0,0.1-0.1,0.2-0.1,0.2s-0.1,0.1-0.2,0.1h-0.4c-0.2,0-0.3-0.1-0.4-0.3
						l-1.4-4.3l-1.4,4.3c-0.1,0.2-0.2,0.3-0.4,0.3h-0.4C98.5,45.3,98.4,45.3,98.4,45.3z"/>
					<path class="st6" d="M106.5,37.9c-0.1-0.1-0.1-0.1-0.1-0.2v-0.6c0-0.1,0-0.1,0.1-0.2s0.1-0.1,0.2-0.1h0.7c0.1,0,0.1,0,0.2,0.1
						s0.1,0.1,0.1,0.2v0.6c0,0.1,0,0.1-0.1,0.2c-0.1,0.1-0.1,0.1-0.2,0.1h-0.7C106.6,38,106.5,38,106.5,37.9z M106.5,45.3
						c-0.1-0.1-0.1-0.1-0.1-0.2v-5.6c0-0.1,0-0.1,0.1-0.2c0.1-0.1,0.1-0.1,0.2-0.1h0.5c0.1,0,0.1,0,0.2,0.1c0.1,0.1,0.1,0.1,0.1,0.2
						v5.6c0,0.1,0,0.1-0.1,0.2s-0.1,0.1-0.2,0.1h-0.5C106.7,45.3,106.6,45.3,106.5,45.3z"/>
					<path class="st6" d="M109.9,43.3v-3.2h-0.9c-0.1,0-0.1,0-0.2-0.1s-0.1-0.1-0.1-0.2v-0.4c0-0.1,0-0.1,0.1-0.2
						c0-0.1,0.1-0.1,0.2-0.1h0.9v-2c0-0.1,0-0.1,0.1-0.2c0-0.1,0.1-0.1,0.2-0.1h0.5c0.1,0,0.1,0,0.2,0.1c0.1,0.1,0.1,0.1,0.1,0.2v2
						h1.5c0.1,0,0.1,0,0.2,0.1c0.1,0.1,0.1,0.1,0.1,0.2v0.4c0,0.1,0,0.1-0.1,0.2c-0.1,0-0.1,0.1-0.2,0.1h-1.5v3.1
						c0,0.4,0.1,0.7,0.2,0.9s0.4,0.3,0.7,0.3h0.7c0.1,0,0.1,0,0.2,0.1s0.1,0.1,0.1,0.2v0.4c0,0.1,0,0.1-0.1,0.2s-0.1,0.1-0.2,0.1
						h-0.8C110.5,45.3,109.9,44.7,109.9,43.3z"/>
					<path class="st6" d="M114,45.3c-0.1-0.1-0.1-0.1-0.1-0.2v-7.9c0-0.1,0-0.2,0.1-0.2c0.1,0,0.1-0.1,0.2-0.1h0.5
						c0.1,0,0.2,0,0.2,0.1c0,0,0.1,0.1,0.1,0.2V40c0.2-0.3,0.5-0.5,0.8-0.7c0.3-0.2,0.7-0.2,1.2-0.2c0.8,0,1.4,0.2,1.8,0.7
						c0.4,0.5,0.6,1.1,0.6,1.9v3.4c0,0.1,0,0.1-0.1,0.2s-0.1,0.1-0.2,0.1h-0.6c-0.1,0-0.1,0-0.2-0.1s-0.1-0.1-0.1-0.2v-3.3
						c0-0.6-0.1-1-0.4-1.3c-0.3-0.3-0.7-0.5-1.2-0.5c-0.5,0-0.9,0.2-1.2,0.5c-0.3,0.3-0.5,0.8-0.5,1.3v3.3c0,0.1,0,0.1-0.1,0.2
						c-0.1,0.1-0.1,0.1-0.2,0.1h-0.5C114.1,45.3,114.1,45.3,114,45.3z"/>
					<path class="st6" d="M124.3,45.3c0-0.1-0.1-0.1-0.1-0.2v-7.8c0-0.1,0-0.2,0.1-0.2c0-0.1,0.1-0.1,0.2-0.1h0.5c0.1,0,0.1,0,0.2,0
						c0,0,0.1,0.1,0.1,0.1l4,6.1v-6c0-0.1,0-0.2,0.1-0.2c0.1-0.1,0.1-0.1,0.2-0.1h0.5c0.1,0,0.2,0,0.2,0.1c0.1,0.1,0.1,0.1,0.1,0.2
						v7.7c0,0.1,0,0.1-0.1,0.2c-0.1,0.1-0.1,0.1-0.2,0.1h-0.5c-0.1,0-0.2-0.1-0.3-0.2l-4-6.1v6c0,0.1,0,0.1-0.1,0.2
						c-0.1,0.1-0.1,0.1-0.2,0.1h-0.5C124.4,45.3,124.3,45.3,124.3,45.3z"/>
					<path class="st6" d="M132.8,44.7c-0.5-0.5-0.7-1.1-0.8-2l0-0.5l0-0.5c0-0.8,0.3-1.5,0.8-2c0.5-0.5,1.1-0.7,2-0.7s1.5,0.2,2,0.7
						c0.5,0.5,0.7,1.1,0.8,2c0,0.2,0,0.3,0,0.5s0,0.3,0,0.5c0,0.8-0.3,1.5-0.8,2c-0.5,0.5-1.1,0.7-2,0.7S133.3,45.2,132.8,44.7z
						 M136,44.1c0.3-0.3,0.5-0.8,0.5-1.4c0-0.1,0-0.2,0-0.5s0-0.4,0-0.5c0-0.6-0.2-1.1-0.5-1.4c-0.3-0.3-0.7-0.5-1.2-0.5
						s-0.9,0.2-1.2,0.5c-0.3,0.3-0.5,0.8-0.5,1.4l0,0.5l0,0.5c0,0.6,0.2,1.1,0.5,1.4c0.3,0.3,0.7,0.5,1.2,0.5S135.7,44.4,136,44.1z"
						/>
					<path class="st6" d="M139.5,44.7c-0.4-0.5-0.6-1.2-0.7-2l0-0.4l0-0.4c0-0.8,0.3-1.5,0.7-2c0.4-0.5,1-0.8,1.9-0.8
						c0.8,0,1.5,0.3,1.9,0.9v-2.7c0-0.1,0-0.1,0.1-0.2c0.1-0.1,0.1-0.1,0.2-0.1h0.5c0.1,0,0.1,0,0.2,0.1c0.1,0.1,0.1,0.1,0.1,0.2
						v7.9c0,0.1,0,0.1-0.1,0.2s-0.1,0.1-0.2,0.1h-0.5c-0.1,0-0.1,0-0.2-0.1c0-0.1-0.1-0.1-0.1-0.2v-0.5c-0.5,0.6-1.1,0.9-2,0.9
						C140.5,45.5,139.9,45.2,139.5,44.7z M142.8,44c0.3-0.4,0.4-0.8,0.5-1.3c0-0.1,0-0.2,0-0.5c0-0.2,0-0.4,0-0.5
						c0-0.5-0.2-0.9-0.5-1.3s-0.7-0.5-1.2-0.5c-0.6,0-1,0.2-1.2,0.5c-0.3,0.4-0.4,0.8-0.4,1.4l0,0.3c0,1.5,0.6,2.3,1.7,2.3
						C142.1,44.5,142.5,44.4,142.8,44z"/>
					<path class="st6" d="M146.7,44.7c-0.5-0.5-0.7-1.2-0.8-2.1l0-0.4l0-0.4c0-0.9,0.3-1.5,0.8-2c0.5-0.5,1.1-0.8,1.9-0.8
						c0.9,0,1.5,0.3,2,0.8c0.5,0.6,0.7,1.3,0.7,2.3v0.2c0,0.1,0,0.1-0.1,0.2c-0.1,0.1-0.1,0.1-0.2,0.1h-4.1v0.1c0,0.5,0.2,1,0.5,1.3
						s0.7,0.5,1.2,0.5c0.4,0,0.7-0.1,0.9-0.2c0.2-0.1,0.4-0.3,0.5-0.5c0.1-0.1,0.1-0.2,0.2-0.2c0,0,0.1,0,0.2,0h0.5
						c0.1,0,0.1,0,0.2,0.1c0.1,0,0.1,0.1,0.1,0.2c0,0.2-0.1,0.4-0.3,0.6c-0.2,0.2-0.5,0.5-0.9,0.6c-0.4,0.2-0.8,0.3-1.3,0.3
						C147.8,45.5,147.1,45.2,146.7,44.7z M150.3,41.8L150.3,41.8c0-0.6-0.2-1-0.5-1.4s-0.7-0.5-1.2-0.5c-0.5,0-0.9,0.2-1.2,0.5
						s-0.4,0.8-0.4,1.4v0H150.3z"/>
					<path class="st6" d="M152.8,45.3c-0.1-0.1-0.1-0.1-0.1-0.2v-0.8c0-0.1,0-0.1,0.1-0.2s0.1-0.1,0.2-0.1h0.8c0.1,0,0.1,0,0.2,0.1
						s0.1,0.1,0.1,0.2v0.8c0,0.1,0,0.1-0.1,0.2s-0.1,0.1-0.2,0.1H153C152.9,45.3,152.8,45.3,152.8,45.3z"/>
					<path class="st6" d="M154.4,47.5c0-0.1-0.1-0.1-0.1-0.2V47c0-0.1,0-0.1,0.1-0.2c0,0,0.1-0.1,0.2-0.1h0.2c0.4,0,0.6-0.1,0.8-0.3
						c0.1-0.2,0.2-0.5,0.2-0.9v-6.1c0-0.1,0-0.2,0.1-0.2c0.1,0,0.1-0.1,0.2-0.1h0.5c0.1,0,0.1,0,0.2,0.1c0.1,0.1,0.1,0.1,0.1,0.2
						v6.1c0,1.4-0.7,2.1-2,2.1h-0.2C154.5,47.6,154.5,47.6,154.4,47.5z M155.7,37.9c-0.1-0.1-0.1-0.1-0.1-0.2v-0.6
						c0-0.1,0-0.1,0.1-0.2c0.1-0.1,0.1-0.1,0.2-0.1h0.7c0.1,0,0.1,0,0.2,0.1s0.1,0.1,0.1,0.2v0.6c0,0.1,0,0.1-0.1,0.2
						c-0.1,0.1-0.1,0.1-0.2,0.1h-0.7C155.8,38,155.8,38,155.7,37.9z"/>
					<path class="st6" d="M159.3,45.2c-0.4-0.2-0.7-0.4-0.8-0.6c-0.2-0.2-0.3-0.4-0.3-0.6c0-0.1,0-0.1,0.1-0.2
						c0.1,0,0.1-0.1,0.2-0.1h0.5c0,0,0.1,0,0.1,0c0,0,0.1,0.1,0.1,0.1c0.2,0.2,0.4,0.4,0.6,0.5c0.2,0.1,0.5,0.2,0.9,0.2
						c0.4,0,0.8-0.1,1-0.2c0.3-0.2,0.4-0.4,0.4-0.7c0-0.2-0.1-0.4-0.2-0.5c-0.1-0.1-0.3-0.2-0.6-0.3c-0.3-0.1-0.6-0.2-1.1-0.3
						c-0.7-0.2-1.2-0.4-1.5-0.7s-0.4-0.7-0.4-1.1c0-0.3,0.1-0.6,0.3-0.8c0.2-0.3,0.4-0.5,0.8-0.7c0.3-0.2,0.8-0.3,1.2-0.3
						c0.5,0,0.9,0.1,1.3,0.2c0.4,0.2,0.6,0.4,0.8,0.6c0.2,0.2,0.3,0.4,0.3,0.6c0,0.1,0,0.1-0.1,0.2c-0.1,0-0.1,0.1-0.2,0.1h-0.5
						c-0.1,0-0.2,0-0.2-0.1c-0.1-0.2-0.2-0.3-0.3-0.4c-0.1-0.1-0.2-0.2-0.4-0.2c-0.2-0.1-0.4-0.1-0.7-0.1c-0.4,0-0.7,0.1-0.9,0.2
						c-0.2,0.2-0.3,0.4-0.3,0.6c0,0.2,0,0.3,0.1,0.4c0.1,0.1,0.3,0.2,0.5,0.3c0.2,0.1,0.6,0.2,1.1,0.3c0.8,0.2,1.3,0.4,1.6,0.7
						s0.5,0.7,0.5,1.1c0,0.3-0.1,0.7-0.3,0.9c-0.2,0.3-0.5,0.5-0.9,0.7c-0.4,0.2-0.8,0.2-1.4,0.2C160.2,45.5,159.7,45.4,159.3,45.2z
						"/>
				</g>
			</g>
		</g>
	</g>
</g>
</svg>
