<svg version="1.2" xmlns="http://www.w3.org/2000/svg" viewBox="0 0 99 72" width="99" height="72"><defs><clipPath clipPathUnits="userSpaceOnUse" id="cp1"><path d="m-1358-1714h1920v7948h-1920z"/></clipPath></defs><style>.a{fill:white}</style><g clip-path="url(#cp1)"><path fill-rule="evenodd" class="a" d="m58.3 62.7c1.8 2.1 3.3 4 4.9 5.8 0.2 0.2 0.6 0.2 1 0.2 1.8 0.1 3.5 0.1 5.3 0.1 1.2 0 1.8 0.5 1.8 1.3 0.1 0.9-0.6 1.4-1.7 1.5q-0.3 0-0.7 0-19.3 0-38.6 0c-0.3 0-0.6 0-1 0-0.9-0.1-1.5-0.6-1.4-1.5 0.1-0.9 0.7-1.3 1.6-1.3 1.8 0 3.6-0.1 5.4 0 0.7 0 1.1-0.2 1.6-0.7 1.3-1.8 2.8-3.5 4.4-5.4-0.6 0-1.1 0-1.5 0q-16.3 0-32.6 0c-1.9 0-3.7-0.3-4.7-1.9-0.6-0.9-1.1-1.9-1.1-2.9 0-17.4 0-34.7 0-52.1 0-2.6 1.8-4.4 4.6-4.7q0.6-0.1 1.2-0.1 42.8 0 85.6 0c1.9 0 3.8 0.3 4.8 2 0.5 0.8 1 1.9 1 2.9 0 17.3 0 34.6 0 52 0 2.6-1.8 4.5-4.5 4.7q-0.8 0.1-1.7 0.1-16.1 0-32.2 0zm1.2-27c-0.7-1.4-1.6-2.6-1.9-4-1-4.9 2.9-9 8.5-9q11.5 0 23 0c0.4 0 0.8-0.1 1 0.1 0.5 0.3 1.1 0.8 1.2 1.3 0 0.4-0.6 1-1 1.4-0.2 0.2-0.7 0.2-1 0.3-3.3 0.7-4.9 4.2-3.1 6.9 0.9 1.4 2.1 2 3.8 2.3 0.9 0.1 1.4 0.7 1.3 1.6-0.1 0.9-0.7 1.3-1.7 1.3-0.6 0.1-1.2 0-1.8 0.1-2 0.2-3.9 0.7-4.8 2.7-1.2 2.8 0.2 5.7 3.3 6.4 1.8 0.4 3.8 0.3 5.7 0.4 1 0 2.1 0 3.2 0v-1.1q0-20.1 0-40.1c0-1.8-0.7-2.4-2.6-2.4q-43 0-86 0c-1.9 0-2.5 0.6-2.5 2.4q0 20 0 40 0 0.6 0 1.1h11.3q0-0.7 0-1.3 0-17.1 0-34.3c0-1.6 0.4-2.1 2.2-2.1q4.3 0 8.7 0c0.4 0 0.8 0 1.1 0 0.1-0.2 0.1-0.3 0.1-0.3q0-1.2 0.1-2.3c0-1.3 0.5-1.8 1.8-1.8q3.8 0 7.5 0c1.3 0 1.8 0.5 1.9 1.7 0 0.2 0 0.4 0.1 0.7 3.2 0 6.5 0 9.7 0 2 0 2.4 0.4 2.4 2.2q0 18.2 0 36.3 0 0.6 0 1.2h5.3c-2.8-5.8-1.9-8.8 3.2-11.7zm35.7 14.7h-91.1c0 2.6 0 5.1 0 7.7 0 0.9 0.6 1.5 1.6 1.7q0.6 0.1 1.3 0.1 42.6 0 85.3 0 0.6 0 1.3-0.1c1-0.2 1.6-0.8 1.6-1.7 0-2.6 0-5.1 0-7.7zm-56.3-33.8v30.8h8.9v-30.8zm-11.4 30.8v-34.8h-8.9v34.8zm3.2-39.2v39.2h4.9v-39.2zm53.4 17.4c-6.4 0-12.7 0-19 0-1.3 0-2.4 0.6-3.3 1.6-1.3 1.5-1.7 3.2-0.8 5 0.9 1.9 2.5 2.9 4.7 2.9q8.9 0 17.7 0 0.3 0 0.6-0.1c-0.5-1.1-1-2.1-1.6-3.3-2 0-4 0-6.1 0q-4.3 0.1-8.6 0c-1.1 0-1.7-0.5-1.7-1.4 0-0.8 0.6-1.3 1.6-1.4q0.4 0 0.8 0 4.8 0 9.5 0 2.3 0 4.6 0c0.2-0.6 0.4-1.2 0.6-1.7 0.3-0.5 0.7-1 1-1.6zm-2.9 12.4c-6.4 0-12.8-0.1-19.1 0-2.1 0.1-4 1.9-4.3 3.9-0.5 3 1.9 5.5 5.3 5.6 5.8 0 11.7 0 17.6 0 0.1 0 0.3-0.1 0.5-0.1-0.5-1.1-1.1-2.2-1.6-3.3q-4 0-8.1 0-3.2 0.1-6.5 0c-1.2 0-1.9-0.6-1.8-1.4 0-0.9 0.6-1.4 1.8-1.4q1.4 0 2.8 0c3.9 0 7.9 0 11.8 0 0.5-1.1 1-2.2 1.6-3.3zm-21.7 30.7c-1.7-2-3.2-3.9-4.8-5.7-0.2-0.2-0.6-0.3-1-0.3q-4 0-8 0c-0.5 0-1 0.3-1.3 0.6-1.2 1.3-2.3 2.6-3.4 4-0.3 0.4-0.7 0.9-1.2 1.4zm-20.6-55.1h9v-2.9h-9z"/><path fill-rule="evenodd" class="a" d="m54.2 54.9c0 2.6-2.1 4.7-4.7 4.6-2.5 0-4.5-2.1-4.5-4.6 0-2.5 2.1-4.6 4.6-4.6 2.6 0 4.7 2.1 4.6 4.6zm-4.6 1.6c0.9-0.1 1.6-0.8 1.6-1.6 0-0.9-0.8-1.6-1.7-1.5-0.8 0-1.5 0.7-1.4 1.6 0 0.8 0.7 1.5 1.5 1.5z"/><path class="a" d="m44.5 30.7q0 2.5 0 5c0 1.1-0.5 1.8-1.5 1.8-0.9 0-1.5-0.7-1.5-1.8q-0.1-5 0-10.1c0-1.1 0.6-1.7 1.5-1.7 0.9 0 1.5 0.6 1.5 1.7q0 2.6 0 5.1z"/><path class="a" d="m20.7 30.1q0-5.7 0-11.4c0-0.3 0-0.7 0.1-1 0.2-0.8 0.8-1.3 1.6-1 0.5 0.2 0.9 0.7 1.3 1.2 0.1 0.2 0 0.5 0 0.8q0 11.5 0 23.1 0 0.1 0 0.3c0 1.2-0.5 1.8-1.4 1.8-1 0-1.6-0.6-1.6-1.8q0-2.2 0-4.3 0-3.9 0-7.7z"/></g></svg>