<svg version="1.2" xmlns="http://www.w3.org/2000/svg" viewBox="0 0 74 85" width="74" height="85"><defs><clipPath clipPathUnits="userSpaceOnUse" id="cp1"><path d="m-977-1572h1920v7948h-1920z"/></clipPath></defs><style>.a{fill:white}</style><g clip-path="url(#cp1)"><path fill-rule="evenodd" class="a" d="m73.2 84.8h-73.2c0.2-1.9 0.2-3.7 0.6-5.5 1.6-7.7 6.1-12.9 13.3-15.9 4.4-1.8 8.8-3.5 13.1-5.3 2.1-0.9 3-2.2 2.9-4.3 0-0.3-0.2-0.7-0.5-0.9-3.8-2.8-6.6-6.4-8.5-10.8-0.1-0.2-0.5-0.5-0.7-0.5-4.4-0.7-6.5-3.1-6.5-7.6 0-3.1-0.1-6.1 0-9.2 0-2.8-1.2-4.9-3.5-6.4q-0.5-0.4-1-0.8c3-5 5.9-10 11.1-13.1 3.6-2.1 7.4-3.3 11.6-3.4 3.8-0.1 7.6-0.3 11.3 0.7 9.4 2.4 16.4 11.2 16.5 20.9q0 6 0 12c-0.1 3.7-2.6 6.5-6.2 6.8-0.7 0.1-1 0.3-1.3 0.9-1.8 4.2-4.4 7.6-8.1 10.3-0.5 0.3-0.7 0.7-0.7 1.3 0.1 2 0.9 3.2 3 4.1 4.3 1.8 8.6 3.5 13 5.3 7.6 3.2 12.1 8.8 13.5 16.9 0.2 0.8 0.2 1.6 0.3 2.5 0 0.6 0 1.2 0 2zm-16.3-55.6c0-2.2 0.1-4.4 0-6.6-0.1-8.4-6.3-16.3-14.5-18.2-4.3-1.1-8.7-1-13.1-0.3-7.8 1.2-12.9 6-16.4 12.8 2.8 2.7 3.6 5.1 3.5 9.2-0.1 1 0 2.1 0 3.2 0.7-0.3 1.3-0.7 1.9-0.9 0.7-0.1 0.8-0.5 0.8-1.1 0-2.4 0-4.7 0-7.1q0-1.4 0-2.9c0.2 0 0.3-0.1 0.4-0.1 5 0 9.7 0.8 14.2 2.8 3.2 1.4 6.4 2.3 9.9 2.5 3.1 0.1 6.2 0.1 9.3 0.1 0.4 0 0.8 0 1.3 0 0 1.7 0 3.3 0 4.9 0 0.2 0.2 0.6 0.3 0.7 0.8 0.4 1.6 0.7 2.4 1zm-21.5 3c-0.1 0.2-0.1 0.4-0.1 0.6-0.5 2.8-2.5 4.6-5.3 4.7q-1.6 0.1-3.2 0c-1.6-0.1-2.9-0.8-3.9-2.1-0.4-0.5-0.6-1.1-1-1.7 0 0.3-0.1 0.5 0 0.6 0.3 8.2 6.5 16.5 14.3 19.2 0.3 0.1 0.8 0 1.2-0.1q9-3.7 12.6-12.8 1.3-3.2 1.5-6.9c-0.6 0.9-1 1.7-1.7 2.3-1 1.1-2.3 1.5-3.8 1.5-1.2 0-2.5 0.1-3.8-0.2-2.6-0.5-3.9-2.5-4.3-5.1zm-12.7 30.6c-0.2 0.1-0.3 0.1-0.5 0.2-2.6 1.1-5.3 2.1-8 3.3-5.5 2.4-9 6.5-10.7 12.2-0.3 1.1-0.4 2.3-0.6 3.6h10.8v-8h2.7v8h12.9c-1.8-1.8-3.5-3.5-5.2-5.2 0.9-1.3 1.7-2.6 2.6-3.9-1.5-1.2-3-2.3-4.5-3.4-0.4-0.3-0.5-0.6-0.4-1.1 0.3-1.9 0.6-3.7 0.9-5.7zm21.4 19.3h12.9v-8h2.7v8h10.7c0-0.7-0.1-1.3-0.2-2-1.4-6.7-5.3-11.5-11.7-14.1q-3.5-1.5-7-2.9c-0.2-0.1-0.5-0.2-0.9-0.3 0.3 2 0.6 3.8 1 5.6 0.1 0.6-0.1 0.9-0.5 1.3-1.5 1-2.9 2.1-4.5 3.3 0.9 1.3 1.8 2.6 2.7 3.9-1.8 1.7-3.4 3.4-5.2 5.2zm-7.4-14.1c-2.3-2.6-4.4-5-6.5-7.5-0.3-0.2-0.6-0.3-0.9-0.5 0 0.3-0.1 0.7 0 1q2 6.1 4 12.2 1.4 4.2 2.8 8.4c0.2 0.5 0.5 0.8 1 0.3 0.1-0.1 0.2-0.4 0.2-0.6q3.4-10.2 6.8-20.3c0.1-0.2 0.2-0.4 0.2-0.6 0-0.1-0.1-0.3-0.2-0.4-0.1 0-0.4 0-0.5 0.1-0.1 0.1-0.3 0.3-0.4 0.4-2.1 2.5-4.3 4.9-6.5 7.5zm-14.8-48v6.7q3.8 0 7.5 0c1.5 0 3.1 0.2 4 1.4 1 1.4 2.3 1.4 3.7 1.3 0.4 0 0.8 0 1.2 0 0.2-0.1 0.5-0.2 0.7-0.4 1.2-1.6 2.9-2.3 4.9-2.3q2.8 0 5.7 0 0.9 0 1.9 0v-1.3c-1.7 0-3.4 0-5 0-4.9-0.1-9.6-1-14.2-3q-4.9-2.2-10.4-2.4zm14.8 43.8c1.7-1.9 3.3-3.8 4.9-5.6 0.1-0.2 0.2-0.4 0.1-0.5q-0.5-1.4-1.1-2.7c-0.9 0.3-1.8 0.7-2.7 1.1-0.8 0.4-1.6 0.4-2.4 0-1-0.4-1.9-0.8-2.8-1.1-0.3 0.9-0.7 1.7-1 2.5 0 0.2-0.1 0.5 0 0.7 1.6 1.8 3.3 3.7 5 5.6zm-12.2-34.4c0 1.1 0 2.1 0.1 3 0.1 1.3 1 2.2 2.3 2.3q1.5 0.2 3.1 0.1c1.6-0.1 2.6-1.3 2.6-2.7 0-1.4-1.1-2.6-2.7-2.7-1.7 0-3.5 0-5.4 0zm24.3 0.1c-2 0-3.9-0.1-5.9 0-1.3 0.1-2.2 1.4-2.2 2.6 0 1.3 1 2.5 2.4 2.6q1.7 0.2 3.4 0c1.2-0.1 2.2-0.9 2.3-2.1 0.1-1 0-2.1 0-3.1zm-22.3 31.9l-0.3-0.2c-0.2 0.3-0.5 0.6-0.6 1q-0.5 2.6-0.9 5.3c0 0.3 0.1 0.6 0.2 0.7q2.5 1.9 5 3.7l0.1-0.1q-1.7-5.2-3.5-10.4zm20.6-0.2l-0.3 0.2q-1.7 5.2-3.4 10.4c1.7-1.1 3.4-2.3 5-3.6 0.2-0.1 0.3-0.4 0.3-0.6q-0.5-2.8-1-5.5c0-0.3-0.4-0.6-0.6-0.9zm-14.1 21.1q0.2-0.1 0.4-0.3c-1-3.1-2-6.2-3.1-9.4-0.9 1.2-1.5 2.3-2.3 3.4-0.4 0.4-0.2 0.7 0.1 1.1q2 1.9 3.9 3.9c0.4 0.4 0.7 0.9 1 1.3zm7-0.3l0.1 0.1q2.7-2.6 5.4-5.3c0.1-0.1 0.1-0.4 0-0.5-0.7-1.2-1.5-2.4-2.4-3.7-1.1 3.2-2.1 6.3-3.1 9.4zm13.7-43.3c1.7-0.2 3.1-1.7 3.3-3.5 0.1-1.8-1-3.6-2.6-4q-0.3 3.7-0.7 7.5zm-34 0q-0.4-3.8-0.7-7.5c-1.7 0.5-2.8 2.3-2.6 4.2 0.3 1.7 1.7 3.2 3.3 3.3z"/></g></svg>