<svg viewBox="0 0 24 24" fill="none" xmlns="http://www.w3.org/2000/svg"><path d="M20.215 18.83a.503.503 0 0 0-.302.033c-1.564.716-3.085 1.227-4.563 1.529-3.191.65-6.302.31-9.328-1.018-.84-.371-2.009-.996-3.504-1.88a.238.238 0 0 0-.135-.05.261.261 0 0 0-.134.023.24.24 0 0 0-.094.079c-.023.033-.028.078-.01.137.015.056.053.12.116.188.264.31.592.64.98.99.389.35.904.746 1.547 1.188A15.97 15.97 0 0 0 6.8 21.227c.7.343 1.513.633 2.44.866.927.234 1.854.35 2.778.35.919 0 1.813-.094 2.679-.276.868-.186 1.6-.404 2.196-.658a12.782 12.782 0 0 0 1.645-.838c.503-.305.874-.563 1.115-.77.241-.207.414-.37.513-.492.116-.144.175-.269.175-.378.003-.114-.043-.18-.127-.2ZM12.659 8.146c-.386.033-.85.104-1.397.21-.546.105-1.05.237-1.518.392a8.09 8.09 0 0 0-1.43.645c-.487.274-.901.589-1.244.94-.343.35-.622.789-.84 1.32a4.523 4.523 0 0 0-.328 1.744c0 .688.12 1.3.363 1.84.242.541.564.965.97 1.28.404.315.864.561 1.371.742a4.25 4.25 0 0 0 1.605.238 6.933 6.933 0 0 0 1.635-.261 4.856 4.856 0 0 0 1.488-.719c.462-.327.84-.716 1.138-1.16.109.168.205.292.292.373l.22.226c.148.15.374.37.678.663.303.292.612.576.922.855l2.65-2.536-.151-.124a3.157 3.157 0 0 1-.386-.364 6.567 6.567 0 0 1-.437-.52 2.925 2.925 0 0 1-.373-.658 1.873 1.873 0 0 1-.158-.723V5.876c0-.256-.048-.533-.145-.833a3.669 3.669 0 0 0-.525-.972 4.251 4.251 0 0 0-.945-.94c-.378-.274-.88-.507-1.513-.695-.63-.188-1.335-.282-2.112-.282a8.65 8.65 0 0 0-2.225.277c-.688.185-1.277.431-1.77.741-.49.31-.91.668-1.261 1.077-.35.408-.612.835-.782 1.28-.17.444-.257.893-.257 1.347l3.433.303c.14-.417.328-.777.559-1.087.233-.31.454-.533.655-.673.203-.14.421-.251.652-.335.234-.084.391-.127.473-.137.08-.008.144-.01.193-.01.677 0 1.147.2 1.411.599.165.241.246.607.246 1.1v1.436c-.385.016-.771.041-1.157.074Zm1.16 3.857c0 .421-.056.805-.165 1.142-.233.74-.678 1.204-1.33 1.392-.57.167-1.11.084-1.623-.249-.546-.356-.817-.858-.817-1.506 0-.505.127-.937.38-1.297a2.313 2.313 0 0 1 1.016-.805 5.976 5.976 0 0 1 1.244-.378 8.534 8.534 0 0 1 1.295-.137v1.838Zm8.511 5.558c-.11-.137-.404-.226-.886-.272a5.301 5.301 0 0 0-1.262.01c-.388.046-.79.158-1.201.34-.414.18-.594.333-.548.453l.017.033.023.017.036.005h.116c.02 0 .046-.002.082-.005.035-.002.068-.007.099-.01.03-.002.073-.008.13-.01a1.41 1.41 0 0 0 .152-.018c.007 0 .094-.007.261-.023.168-.015.29-.025.363-.033.074-.007.198-.015.368-.022a3.61 3.61 0 0 1 .41 0l.345.027c.129.01.233.033.314.069a.399.399 0 0 1 .18.13c.133.167.107.538-.076 1.114a11.102 11.102 0 0 1-.518 1.376c-.07.145-.07.234 0 .272.072.038.17.003.303-.102.396-.31.726-.777.992-1.404.155-.37.267-.756.333-1.16.061-.404.05-.665-.033-.787Z" fill="#FF8F00"/></svg>