<svg viewBox="0 0 158 32" fill="none" xmlns="http://www.w3.org/2000/svg">
<path d="M12.5371 23.0492C12.141 22.7312 12.4935 22.2952 12.9648 22.5412C18.3779 25.3602 25.0655 27.0582 31.9767 27.0582C36.638 27.0582 41.762 26.1922 46.4778 24.4022C47.1882 24.1312 47.7839 24.8212 47.0889 25.2812C42.8836 28.0592 36.7853 29.5362 31.5348 29.5362C24.1762 29.5362 17.552 27.1022 12.536 23.0492H12.5371Z" fill="white"/>
<path d="M43.8242 22.8351C46.2301 21.3211 50.1746 21.7571 50.6329 22.2651C51.0955 22.7751 50.5117 26.3181 48.2564 28.0051C47.9094 28.2671 47.5777 28.1271 47.7326 27.7851C48.24 26.6501 49.377 24.1111 48.8379 23.4921C48.3011 22.8751 45.2819 23.1991 43.9256 23.3461C43.5165 23.3891 43.4532 23.0681 43.8242 22.8361V22.8351Z" fill="white"/>
<path d="M7.5659 9.77612C8.65812 9.77612 10.0831 10.0361 10.9419 10.7731C12.033 11.6851 11.9272 12.9011 11.9272 14.2231V17.3481C11.9272 18.2881 12.3636 18.7001 12.7728 19.2081C12.9157 19.3911 12.9474 19.6081 12.7651 19.7411C12.1865 20.1792 11.6136 20.6235 11.0466 21.0741C10.8928 21.1834 10.6831 21.1991 10.512 21.1141C9.76998 20.5621 9.63468 20.3051 9.22769 19.7791C7.99799 20.9001 7.12726 21.2351 5.53639 21.2351C3.64873 21.2361 2.18225 20.1961 2.18225 18.1121C2.18225 16.4831 3.16754 15.3741 4.57183 14.8321C5.78517 14.3551 7.48406 14.2681 8.7836 14.1381V13.8781C8.7836 13.4021 8.82506 12.8341 8.51082 12.4221C8.23803 12.0541 7.71429 11.9011 7.25383 11.9011C6.40057 11.9011 5.64005 12.2931 5.45237 13.1061C5.41309 13.2871 5.26688 13.4661 5.06393 13.4741L2.89258 13.2641C2.70927 13.2271 2.50523 13.0951 2.55869 12.8461C3.04125 10.5623 5.28552 9.82365 7.36016 9.77837L7.5659 9.77612ZM8.7836 15.7431C7.16327 15.7431 5.45019 16.0541 5.45019 17.7631C5.45019 18.6311 5.9532 19.2181 6.81411 19.2181C7.4426 19.2181 8.0089 18.8711 8.36461 18.3051C8.80324 17.6111 8.7836 16.9601 8.7836 16.1791V15.7431Z" fill="white"/>
<path d="M58.5665 9.87305C61.8922 9.87305 63.6915 12.43 63.6915 15.679C63.6915 18.819 61.7046 21.311 58.5665 21.311C55.304 21.311 53.5276 18.755 53.5276 15.571C53.5276 12.364 55.3258 9.87305 58.5665 9.87305ZM58.5872 11.974C56.9933 11.974 56.8396 13.8525 56.8309 15.1134L56.8305 15.506C56.8349 16.836 56.9243 19.187 58.5654 19.187C60.3036 19.187 60.3854 17.022 60.3854 15.7C60.3854 14.834 60.345 13.794 60.0515 12.972C59.7995 12.256 59.2986 11.975 58.5872 11.975V11.974Z" fill="white"/>
<path d="M36.937 9.77612C38.0281 9.77612 39.451 10.0361 40.3108 10.7731C41.3413 11.6345 41.3041 12.767 41.2968 14.0038L41.2961 17.3481C41.2961 18.2881 41.7325 18.7001 42.1417 19.2081C42.2835 19.3911 42.3163 19.6081 42.1341 19.7411C41.9622 19.8694 41.7406 20.0388 41.5072 20.2193L41.0358 20.5861C40.8034 20.7679 40.5844 20.9406 40.4166 21.0741C40.2627 21.183 40.0535 21.199 39.882 21.1151C39.1367 20.5621 39.0036 20.3051 38.5977 19.7791C37.368 20.9001 36.4962 21.2351 34.902 21.2351C33.0176 21.2351 31.5522 20.1951 31.5522 18.1121C31.5522 16.4831 32.5343 15.3731 33.9396 14.8311C35.1563 14.3551 36.853 14.2681 38.1514 14.1381V13.8781C38.1514 13.4021 38.1951 12.8351 37.8786 12.4221C37.6059 12.0541 37.0821 11.9021 36.6238 11.9021C35.7673 11.9021 35.0079 12.2941 34.8224 13.1061C34.7809 13.2871 34.6358 13.4661 34.4328 13.4751L32.2615 13.2631C32.076 13.2271 31.873 13.0951 31.9254 12.8461C32.4252 10.4861 34.8038 9.77612 36.937 9.77612ZM38.1525 15.7441C36.5311 15.7441 34.8191 16.0541 34.8191 17.7641C34.8191 18.6311 35.3232 19.2191 36.183 19.2191C36.8104 19.2191 37.3756 18.8711 37.7324 18.3051C38.1732 17.6111 38.1514 16.9601 38.1514 16.1791L38.1525 15.7441Z" fill="white"/>
<path d="M26.4403 9.87305C27.3797 9.87305 28.4065 10.222 29.0328 11.001C29.7431 11.865 29.598 13.124 29.598 14.227L29.5958 20.724C29.5958 20.931 29.4016 21.094 29.1659 21.094H26.9269C26.7069 21.0898 26.5295 20.9277 26.5243 20.726L26.5232 15.266C26.5232 14.834 26.5658 13.75 26.461 13.339C26.293 12.645 25.7911 12.451 25.144 12.451C24.554 12.4632 24.0279 12.7946 23.8041 13.295C23.6252 13.701 23.5979 14.315 23.5946 14.842V20.724C23.5946 20.931 23.4026 21.094 23.1636 21.094H20.9268C20.7068 21.0893 20.5294 20.9276 20.5231 20.726L20.5209 15.266C20.5209 15.103 20.5253 14.928 20.5274 14.748L20.5296 14.476C20.5285 13.472 20.391 12.43 19.1428 12.43C17.7025 12.43 17.5999 13.743 17.5934 14.871V20.724C17.5934 20.931 17.3992 21.094 17.1602 21.094H14.9201C14.7137 21.0882 14.5435 20.9441 14.5208 20.756V10.46C14.5208 10.255 14.715 10.09 14.9539 10.09H17.0402C17.2584 10.102 17.433 10.248 17.4472 10.437V11.78H17.4897C18.032 10.48 19.0577 9.87305 20.438 9.87305C21.839 9.87305 22.7173 10.48 23.3458 11.78C23.8892 10.48 25.1211 9.87305 26.4392 9.87305H26.4403Z" fill="white"/>
<path d="M71.3665 9.87305C72.3704 9.87305 73.3535 10.199 73.9798 11.088C74.5668 11.911 74.5668 13.295 74.5668 14.291V20.769C74.5417 20.954 74.3595 21.094 74.1369 21.094H71.8903C71.6892 21.0883 71.5215 20.9514 71.492 20.769V15.059C71.5007 13.939 71.5848 12.409 70.091 12.409C69.5465 12.409 69.0446 12.734 68.7958 13.231C68.4794 13.859 68.439 14.489 68.439 15.181V20.724C68.4346 20.931 68.2404 21.094 68.0026 21.094H65.7712C65.5512 21.0898 65.3738 20.9277 65.3686 20.726L65.3642 10.425C65.3827 10.237 65.5704 10.091 65.7941 10.091H67.8727C68.0691 10.101 68.2295 10.217 68.2721 10.381V11.954H68.3124C68.9409 10.544 69.8193 9.87405 71.3665 9.87405V9.87305Z" fill="white"/>
<path d="M51.8026 10.0631C52.0393 10.0631 52.2281 10.2171 52.2281 10.4351V11.6971C52.2248 11.9091 52.0262 12.1831 51.6738 12.6231L47.857 17.4961C49.2733 17.4681 50.7704 17.6571 52.0579 18.3041C52.347 18.4511 52.4256 18.6671 52.4485 18.8811V20.4471C52.4485 20.6651 52.1845 20.9151 51.9062 20.7841C49.6399 19.7211 46.6317 19.6041 44.1243 20.7971C43.8689 20.9201 43.6005 20.6751 43.6005 20.4571V18.9661C43.6005 18.7281 43.606 18.3181 43.8744 17.9531L48.2946 12.2801H44.4462C44.2116 12.2801 44.0228 12.1281 44.0206 11.9101V10.4361C44.0187 10.335 44.0624 10.2378 44.1412 10.1672C44.2201 10.0966 44.3273 10.0589 44.4374 10.0631H51.8026Z" fill="white"/>
<path d="M93.3878 21V13.488C93.3878 12.5038 92.9464 12.0116 92.0635 12.0116C91.2819 12.0116 90.493 12.1998 89.697 12.5761V12.7932V21H86.5272V13.488C86.5272 12.5038 86.0857 12.0116 85.2028 12.0116C84.3922 12.0116 83.5962 12.207 82.8146 12.5978V21H79.6448V9.90568H82.2501L82.5323 10.9695C83.2995 10.4629 83.987 10.1083 84.5949 9.90568C85.2173 9.68857 85.8541 9.58001 86.5054 9.58001C87.8081 9.58001 88.7272 10.0432 89.2627 10.9695C90.0009 10.4774 90.6957 10.1228 91.347 9.90568C91.9983 9.68857 92.6714 9.58001 93.3661 9.58001C94.3793 9.58001 95.1609 9.86226 95.7109 10.4267C96.2754 10.9912 96.5576 11.7801 96.5576 12.7932V21H93.3878ZM99.6404 21V9.90568H102.81V21H99.6404ZM101.225 8.19051C100.675 8.19051 100.234 8.03853 99.901 7.73458C99.5681 7.43062 99.4016 7.01811 99.4016 6.49705C99.4016 5.97599 99.5681 5.56348 99.901 5.25952C100.234 4.95557 100.675 4.80359 101.225 4.80359C101.775 4.80359 102.217 4.95557 102.55 5.25952C102.883 5.56348 103.049 5.97599 103.049 6.49705C103.049 7.01811 102.883 7.43062 102.55 7.73458C102.217 8.03853 101.775 8.19051 101.225 8.19051ZM113.057 21V13.7268C113.057 13.1334 112.926 12.6992 112.666 12.4242C112.405 12.1491 112.007 12.0116 111.472 12.0116C110.676 12.0116 109.887 12.2577 109.105 12.7498V21H105.935V9.90568H108.541L108.845 11.0998C110.147 10.0866 111.537 9.58001 113.013 9.58001C114.041 9.58001 114.83 9.86226 115.38 10.4267C115.944 10.9768 116.226 11.7656 116.226 12.7932V21H113.057ZM119.316 21V9.90568H122.486V21H119.316ZM120.901 8.19051C120.351 8.19051 119.909 8.03853 119.577 7.73458C119.244 7.43062 119.077 7.01811 119.077 6.49705C119.077 5.97599 119.244 5.56348 119.577 5.25952C119.909 4.95557 120.351 4.80359 120.901 4.80359C121.451 4.80359 121.892 4.95557 122.225 5.25952C122.558 5.56348 122.725 5.97599 122.725 6.49705C122.725 7.01811 122.558 7.43062 122.225 7.73458C121.892 8.03853 121.451 8.19051 120.901 8.19051ZM128.933 21V8.5596H124.352V5.95428H136.77V8.5596H132.189V21H128.933ZM143.153 21L137.812 5.95428H141.416L144.933 17.8085L148.429 5.95428H151.946L146.605 21H143.153Z" fill="url(#paint0_linear_264_355)"/>
<defs>
<linearGradient id="paint0_linear_264_355" x1="156.25" y1="0" x2="78.125" y2="0" gradientUnits="userSpaceOnUse">
<stop stop-color="#E90B8C"/>
<stop offset="1" stop-color="#D21F49"/>
</linearGradient>
</defs>
</svg>