<svg viewBox="0 0 140 47" xmlns="http://www.w3.org/2000/svg"><g fill="none"><path d="M128.851 0H11.155c-.429 0-.853 0-1.28.002-.359.003-.714.01-1.076.015-.785.01-1.57.08-2.344.208a7.533 7.533 0 0 0-4.118 2.122A7.352 7.352 0 0 0 .96 4.25a7.78 7.78 0 0 0-.732 2.237c-.13.777-.2 1.564-.21 2.352-.01.36-.011.722-.017 1.082v27.16c.006.364.007.718.018 1.083.01.788.08 1.574.21 2.352.128.779.375 1.533.73 2.237.355.703.82 1.344 1.38 1.897a7.342 7.342 0 0 0 1.893 1.385c.7.358 1.45.608 2.224.741a15.61 15.61 0 0 0 2.344.208c.362.008.717.013 1.075.013.428.002.852.002 1.281.002h117.696c.42 0 .848 0 1.268-.002.357 0 .722-.005 1.079-.013a15.47 15.47 0 0 0 2.34-.208 7.937 7.937 0 0 0 2.232-.74c.7-.358 1.34-.826 1.892-1.386a7.512 7.512 0 0 0 1.383-1.897 7.794 7.794 0 0 0 .724-2.237c.13-.778.203-1.564.217-2.352.005-.365.005-.719.005-1.084.009-.426.009-.851.009-1.285v-24.59c0-.431 0-.858-.01-1.284 0-.36 0-.722-.004-1.082a15.937 15.937 0 0 0-.217-2.352 7.8 7.8 0 0 0-.724-2.237 7.582 7.582 0 0 0-3.275-3.29 7.894 7.894 0 0 0-2.232-.736 15.197 15.197 0 0 0-2.34-.208c-.357-.005-.722-.012-1.079-.015L128.851 0z" fill="#FFF"/><path d="M9.88 45.972c-.357 0-.704-.005-1.058-.013a14.78 14.78 0 0 1-2.187-.191 6.863 6.863 0 0 1-1.938-.644 6.326 6.326 0 0 1-1.634-1.195 6.25 6.25 0 0 1-1.194-1.64 6.744 6.744 0 0 1-.636-1.948 14.647 14.647 0 0 1-.194-2.203c-.008-.248-.018-1.073-.018-1.073V9.922s.01-.812.018-1.051a14.49 14.49 0 0 1 .193-2.2c.112-.68.326-1.338.636-1.953a6.313 6.313 0 0 1 1.188-1.642 6.513 6.513 0 0 1 3.575-1.84 14.53 14.53 0 0 1 2.194-.193l1.055-.015h120.234l1.068.015c.728.009 1.455.073 2.174.191a6.92 6.92 0 0 1 1.955.644 6.559 6.559 0 0 1 2.825 2.843c.305.61.516 1.264.626 1.938.122.733.19 1.474.204 2.217.003.333.003.69.003 1.046.01.44.01.86.01 1.283v24.591c0 .427 0 .843-.01 1.263 0 .383 0 .733-.004 1.093-.014.73-.08 1.458-.2 2.178a6.764 6.764 0 0 1-.632 1.962 6.438 6.438 0 0 1-1.188 1.628 6.334 6.334 0 0 1-1.638 1.202 6.837 6.837 0 0 1-1.951.646c-.723.118-1.454.182-2.187.191-.35.008-.7.013-1.05.013l-1.268.002L9.88 45.972z" fill="#000"/><path d="M28.978 23.853a5.82 5.82 0 0 1 2.757-4.878 5.92 5.92 0 0 0-4.67-2.535c-1.964-.208-3.869 1.18-4.87 1.18-1.02 0-2.562-1.16-4.221-1.126A6.215 6.215 0 0 0 12.74 19.7c-2.263 3.934-.575 9.716 1.592 12.896 1.085 1.558 2.352 3.297 4.01 3.236 1.623-.068 2.229-1.04 4.188-1.04 1.94 0 2.51 1.04 4.201 1 1.741-.028 2.839-1.564 3.885-3.136a12.903 12.903 0 0 0 1.776-3.634 5.62 5.62 0 0 1-3.415-5.169zm-3.196-9.505a5.742 5.742 0 0 0 1.304-4.102c-1.45.153-2.79.85-3.753 1.95a5.462 5.462 0 0 0-1.338 3.95 4.788 4.788 0 0 0 3.787-1.798zm23.71 17.541h-5.539l-1.33 3.944h-2.345l5.245-14.591h2.437l5.245 14.59H50.82l-1.33-3.942zm-4.965-1.82h4.39l-2.164-6.4h-.061l-2.165 6.4zm20.006.446c0 3.305-1.761 5.43-4.42 5.43a3.588 3.588 0 0 1-3.333-1.862h-.05v5.27h-2.174V25.194h2.104v1.77h.04a3.754 3.754 0 0 1 3.373-1.881c2.688 0 4.46 2.134 4.46 5.43zm-2.234 0c0-2.154-1.109-3.57-2.8-3.57-1.66 0-2.778 1.446-2.778 3.57 0 2.143 1.117 3.578 2.779 3.578 1.69 0 2.799-1.405 2.799-3.579zm13.893 0c0 3.305-1.762 5.43-4.42 5.43a3.588 3.588 0 0 1-3.333-1.862h-.05v5.27h-2.175V25.194h2.105v1.77h.04a3.754 3.754 0 0 1 3.372-1.881c2.689 0 4.46 2.134 4.46 5.43zm-2.235 0c0-2.154-1.108-3.57-2.8-3.57-1.66 0-2.778 1.446-2.778 3.57 0 2.143 1.117 3.578 2.779 3.578 1.69 0 2.799-1.405 2.799-3.579zm9.94 1.253c.161 1.446 1.56 2.397 3.473 2.397 1.833 0 3.151-.95 3.151-2.255 0-1.133-.795-1.81-2.678-2.276l-1.883-.455c-2.668-.647-3.906-1.9-3.906-3.934 0-2.517 2.185-4.246 5.286-4.246 3.07 0 5.175 1.729 5.246 4.246H90.39c-.132-1.456-1.33-2.335-3.082-2.335-1.75 0-2.95.89-2.95 2.184 0 1.031.766 1.638 2.639 2.103l1.6.395c2.981.708 4.22 1.91 4.22 4.045 0 2.73-2.165 4.44-5.609 4.44-3.222 0-5.397-1.67-5.538-4.31h2.226zm13.613-9.09v2.517h2.014v1.73H97.51v5.864c0 .91.403 1.335 1.289 1.335.239-.004.478-.02.715-.05v1.719a5.946 5.946 0 0 1-1.208.1c-2.144 0-2.98-.808-2.98-2.871v-6.098h-1.54v-1.73h1.54v-2.517h2.184zm3.18 7.837c0-3.348 1.964-5.45 5.024-5.45 3.072 0 5.025 2.102 5.025 5.45 0 3.356-1.943 5.45-5.025 5.45-3.08 0-5.023-2.094-5.023-5.45zm7.834 0c0-2.297-1.048-3.652-2.81-3.652-1.761 0-2.808 1.366-2.808 3.652 0 2.305 1.047 3.65 2.808 3.65 1.762 0 2.81-1.345 2.81-3.65zm4.008-5.32h2.073v1.81h.05a2.528 2.528 0 0 1 2.549-1.921c.25-.001.5.026.745.081v2.043a3.027 3.027 0 0 0-.977-.132 2.186 2.186 0 0 0-1.694.7 2.206 2.206 0 0 0-.572 1.747v6.31h-2.174V25.195zm15.44 7.513c-.292 1.932-2.164 3.257-4.56 3.257-3.081 0-4.994-2.074-4.994-5.4 0-3.337 1.923-5.5 4.903-5.5 2.93 0 4.773 2.02 4.773 5.246v.749h-7.481v.131a2.78 2.78 0 0 0 .747 2.153c.546.576 1.311.89 2.102.86 1.055.1 2.05-.508 2.446-1.496h2.065zm-7.349-3.175h5.296a2.565 2.565 0 0 0-.712-1.92 2.542 2.542 0 0 0-1.886-.78 2.676 2.676 0 0 0-1.91.786 2.7 2.7 0 0 0-.788 1.914zM44.254 10.26a3.081 3.081 0 0 1 2.464.961c.636.675.937 1.6.821 2.523 0 2.24-1.205 3.527-3.285 3.527h-2.521V10.26h2.521zm-1.437 6.02h1.316a2.19 2.19 0 0 0 1.749-.711 2.21 2.21 0 0 0 .553-1.811 2.216 2.216 0 0 0-.562-1.799 2.196 2.196 0 0 0-1.74-.708h-1.316v5.029zm5.947-1.657a2.51 2.51 0 0 1 1.168-2.368 2.487 2.487 0 0 1 2.632 0 2.51 2.51 0 0 1 1.169 2.368 2.51 2.51 0 0 1-1.167 2.373 2.487 2.487 0 0 1-2.635 0 2.51 2.51 0 0 1-1.167-2.373zm3.9 0c0-1.147-.514-1.817-1.414-1.817-.904 0-1.412.67-1.412 1.817 0 1.156.508 1.822 1.412 1.822.9 0 1.413-.67 1.413-1.822zm7.674 2.648h-1.08l-1.088-3.897h-.082l-1.084 3.897h-1.069l-1.452-5.291h1.055l.944 4.037h.077l1.083-4.037h.998l1.083 4.037h.082l.94-4.037h1.039l-1.446 5.291zm2.667-5.29h1.001v.84h.078c.27-.62.901-.998 1.572-.943a1.71 1.71 0 0 1 1.383.544c.355.382.517.906.44 1.424v3.425h-1.04v-3.163c0-.85-.367-1.273-1.136-1.273a1.206 1.206 0 0 0-.936.38c-.242.258-.36.609-.322.96v3.096h-1.04v-5.29zm6.131-2.066h1.04v7.356h-1.04V9.914zm2.485 4.708a2.51 2.51 0 0 1 1.169-2.369 2.487 2.487 0 0 1 2.632 0 2.51 2.51 0 0 1 1.168 2.37 2.51 2.51 0 0 1-1.167 2.371 2.487 2.487 0 0 1-2.635 0 2.51 2.51 0 0 1-1.167-2.372zm3.9 0c0-1.147-.514-1.817-1.414-1.817-.904 0-1.412.67-1.412 1.817 0 1.156.509 1.822 1.412 1.822.9 0 1.413-.67 1.413-1.822zm2.164 1.152c0-.953.706-1.502 1.96-1.58l1.426-.082v-.457c0-.559-.367-.874-1.078-.874-.58 0-.983.214-1.098.588h-1.007c.107-.91.958-1.492 2.153-1.492 1.32 0 2.066.66 2.066 1.778v3.615h-1.001v-.744h-.083a1.77 1.77 0 0 1-1.582.831 1.587 1.587 0 0 1-1.228-.4 1.601 1.601 0 0 1-.528-1.183zm3.386-.452v-.443l-1.286.083c-.726.049-1.055.297-1.055.763 0 .476.412.753.977.753.335.034.67-.07.926-.288a1.25 1.25 0 0 0 .438-.868zm2.402-.7c0-1.672.856-2.73 2.187-2.73a1.735 1.735 0 0 1 1.615.928h.078V9.913h1.04v7.357h-.997v-.836h-.082a1.827 1.827 0 0 1-1.654.923c-1.34 0-2.187-1.06-2.187-2.735zm1.074 0c0 1.122.527 1.798 1.407 1.798.877 0 1.418-.685 1.418-1.793 0-1.103-.547-1.798-1.418-1.798-.875 0-1.407.68-1.407 1.793zm8.147 0a2.51 2.51 0 0 1 1.169-2.368 2.487 2.487 0 0 1 2.632 0 2.51 2.51 0 0 1 1.168 2.368 2.51 2.51 0 0 1-1.167 2.373 2.487 2.487 0 0 1-2.635 0 2.51 2.51 0 0 1-1.167-2.373zm3.9 0c0-1.147-.513-1.817-1.414-1.817-.903 0-1.412.67-1.412 1.817 0 1.156.509 1.822 1.412 1.822.9 0 1.414-.67 1.414-1.822zm2.464-2.643h1v.84h.079c.27-.618.901-.997 1.572-.942a1.71 1.71 0 0 1 1.383.544c.354.382.516.906.44 1.424v3.425h-1.04v-3.163c0-.85-.367-1.273-1.136-1.273a1.206 1.206 0 0 0-.936.38c-.242.258-.36.609-.322.96v3.096h-1.04v-5.29zm10.349-1.317v1.341h1.141v.88h-1.141v2.72c0 .555.227.797.745.797.132 0 .265-.008.396-.024v.87a3.397 3.397 0 0 1-.565.053c-1.156 0-1.617-.408-1.617-1.428v-2.988h-.836v-.88h.836v-1.341h1.041zm2.562-.748h1.03v2.915h.082a1.62 1.62 0 0 1 1.607-.948 1.732 1.732 0 0 1 1.369.558c.35.382.514.9.445 1.415v3.416h-1.04v-3.158c0-.846-.393-1.274-1.127-1.274a1.228 1.228 0 0 0-.974.361 1.24 1.24 0 0 0-.353.98v3.091h-1.04V9.914zm10.595 5.927a2.139 2.139 0 0 1-2.282 1.531 2.388 2.388 0 0 1-1.847-.8 2.41 2.41 0 0 1-.587-1.93 2.447 2.447 0 0 1 .586-1.94 2.425 2.425 0 0 1 1.843-.825c1.466 0 2.35 1.006 2.35 2.667v.364h-3.72v.059a1.392 1.392 0 0 0 1.403 1.516 1.261 1.261 0 0 0 1.253-.642h1.001zm-3.657-1.705h2.661a1.28 1.28 0 0 0-.346-.973 1.268 1.268 0 0 0-.95-.397 1.344 1.344 0 0 0-.97.396c-.257.258-.4.61-.395.974z" fill="#FFF"/></g></svg>