<svg width="24" height="24" xmlns="http://www.w3.org/2000/svg"><path d="M9.974 5.82c0-1.007.81-1.82 1.801-1.82h1.45a1.81 1.81 0 0 1 1.801 1.82v.498c.395.17.771.382 1.123.632l.425-.246a1.795 1.795 0 0 1 2.457.662l.725 1.26a1.826 1.826 0 0 1-.663 2.49l-.377.22a6.28 6.28 0 0 1 0 1.329l.377.218a1.828 1.828 0 0 1 .663 2.491l-.725 1.26a1.794 1.794 0 0 1-2.457.662l-.425-.246c-.352.25-.728.462-1.123.632v.497c0 1.008-.81 1.821-1.801 1.821h-1.45a1.81 1.81 0 0 1-1.801-1.82v-.589a6.142 6.142 0 0 1-1.011-.606l-.537.311a1.795 1.795 0 0 1-2.457-.662l-.725-1.26a1.828 1.828 0 0 1 .663-2.49l.568-.33a6.284 6.284 0 0 1 0-1.109l-.568-.328a1.828 1.828 0 0 1-.663-2.491l.725-1.26a1.794 1.794 0 0 1 2.457-.662l.537.31a6.142 6.142 0 0 1 1.01-.605V5.82zm1.428 1.073a.727.727 0 0 1-.466.682 4.718 4.718 0 0 0-1.443.865.704.704 0 0 1-.819.081l-.955-.553a.38.38 0 0 0-.518.133l-.724 1.26a.359.359 0 0 0 .136.492l.986.57a.732.732 0 0 1 .35.76 4.768 4.768 0 0 0 0 1.634.732.732 0 0 1-.35.76l-.986.57a.359.359 0 0 0-.136.492l.725 1.26a.38.38 0 0 0 .517.133l.955-.553a.704.704 0 0 1 .82.08c.426.374.915.667 1.442.866.28.106.466.378.466.682v1.072c0 .201.164.366.373.366h1.45a.371.371 0 0 0 .373-.366v-1c0-.315.199-.594.493-.691a4.711 4.711 0 0 0 1.546-.868.704.704 0 0 1 .809-.072l.835.484a.38.38 0 0 0 .518-.133l.724-1.26a.359.359 0 0 0-.136-.492l-.804-.465a.732.732 0 0 1-.347-.774 4.77 4.77 0 0 0 0-1.816.732.732 0 0 1 .347-.774l.804-.465a.359.359 0 0 0 .136-.492l-.725-1.26a.38.38 0 0 0-.517-.133l-.835.483a.704.704 0 0 1-.809-.071 4.711 4.711 0 0 0-1.547-.867.726.726 0 0 1-.492-.692v-1a.369.369 0 0 0-.373-.366h-1.45a.371.371 0 0 0-.373.366v1.072zm1.098 7.652c-1.38 0-2.5-1.14-2.5-2.545 0-1.406 1.12-2.545 2.5-2.545S15 10.595 15 12c0 1.406-1.12 2.545-2.5 2.545zm0-1.454c.592 0 1.071-.489 1.071-1.091s-.48-1.09-1.071-1.09A1.08 1.08 0 0 0 11.429 12c0 .602.48 1.09 1.071 1.09z" fill="#FFF"/></svg>