<svg viewBox="0 0 40 40" fill="none" xmlns="http://www.w3.org/2000/svg"><circle cx="20" cy="20" r="20" fill="#1A2224"/><path d="M30.367 12.077c-1.017.498-2.013.7-3.05 1.006-1.14-1.286-2.83-1.357-4.453-.749-1.624.608-2.687 2.094-2.664 3.8v1.016c-3.3.084-6.237-1.418-8.133-4.067 0 0-4.252 7.557 4.066 11.184-1.903 1.268-3.801 2.123-6.1 2.033 3.364 1.833 7.028 2.463 10.202 1.542 3.64-1.057 6.63-3.785 7.778-7.87.342-1.243.512-2.527.505-3.816-.002-.253 1.535-2.818 1.849-4.08v0Z" stroke="#fff" stroke-opacity=".7" stroke-width="1.5" stroke-linecap="round" stroke-linejoin="round"/></svg>